<?xml version="1.0" encoding="UTF-8"?>
<!DOCTYPE svg PUBLIC "-//W3C//DTD SVG 1.1//EN" "http://www.w3.org/Graphics/SVG/1.1/DTD/svg11.dtd">
<!-- Creator: CorelDRAW -->
<svg xmlns="http://www.w3.org/2000/svg" xml:space="preserve" width="329px" height="139px" version="1.1" style="shape-rendering:geometricPrecision; text-rendering:geometricPrecision; image-rendering:optimizeQuality; fill-rule:evenodd; clip-rule:evenodd"
viewBox="0 0 17.73 7.46"
 xmlns:xlink="http://www.w3.org/1999/xlink"
 xmlns:xodm="http://www.corel.com/coreldraw/odm/2003">
 <defs>
  <style type="text/css">
   <![CDATA[
    .fil6 {fill:#FEFEFE;fill-rule:nonzero}
    .fil0 {fill:black;fill-rule:nonzero}
    .fil7 {fill:#150000;fill-rule:nonzero}
    .fil8 {fill:#293E3F;fill-rule:nonzero}
    .fil9 {fill:#2F656B;fill-rule:nonzero}
    .fil10 {fill:#648A87;fill-rule:nonzero}
    .fil2 {fill:#8A694C;fill-rule:nonzero}
    .fil4 {fill:#E2C06D;fill-rule:nonzero}
    .fil3 {fill:#F4D695;fill-rule:nonzero}
    .fil11 {fill:red;fill-rule:nonzero}
    .fil1 {fill:#FF7D00;fill-rule:nonzero}
    .fil5 {fill:url(#id0)}
   ]]>
  </style>
  <radialGradient id="id0" gradientUnits="userSpaceOnUse" gradientTransform="matrix(17.5574 -0 -0 -17.5574 -1008 198)" cx="60.9" cy="10.67" r="3.43" fx="60.9" fy="10.67">
   <stop offset="0" style="stop-opacity:1; stop-color:white"/>
   <stop offset="1" style="stop-opacity:1; stop-color:black"/>
  </radialGradient>
 </defs>
 <g id="Слой_x0020_1">
  <metadata id="CorelCorpID_0Corel-Layer"/>
  <g id="_1596219546224">
   <path class="fil0" d="M11.02 6.72c0.55,-0.88 2.1,-1.98 3.67,-1.58 0.07,-1.51 1.73,-2.73 2.45,-2.96 -0.28,-1.19 0.59,-2.18 0.59,-2.18 0,0 -1.4,0.06 -2.6,0.61 -1.2,0.55 -1.69,1.15 -2.08,1.64 -0.31,0.36 -1.32,1.36 -1.73,2.59 -0.28,0.3 -0.63,0.7 -0.63,0.7 0,0 0.15,1.02 0.33,1.18z"/>
   <path class="fil1" d="M12.98 2.27c-1.5,1.57 -1.72,2.49 -1.72,2.49 0,0 -0.34,0.28 -0.59,0.57 -0.02,0.24 0.15,0.19 0.15,0.19 0,0 0.32,-0.29 0.6,-0.56 0.25,-0.98 0.81,-1.73 1.62,-2.63l-0.06 -0.06z"/>
   <path class="fil2" d="M17.46 0.03c-1.83,0.5 -3.55,1.58 -4.17,1.99 1.33,-1.52 3.19,-1.87 4.17,-1.99zm0.27 -0.03c-2.75,0.06 -4.2,1.53 -4.75,2.27l0 0.06c0.07,0.09 1.15,1.45 1.66,2.8l0.05 0.01c0,-0.03 0.01,-0.06 0.01,-0.08 -0.5,-1.28 -1.48,-2.55 -1.64,-2.75l0.02 -0.03c0.2,-0.05 2.22,-0.54 4,-0.08 0.02,-0.01 0.04,-0.02 0.06,-0.02l0 -0.05c-1.59,-0.42 -3.38,-0.08 -3.93,0.04 0.48,-0.33 2.45,-1.62 4.48,-2.12 0.03,-0.03 0.04,-0.05 0.04,-0.05z"/>
   <path class="fil0" d="M9.04 7.29c-1.03,-0.55 -2.95,-1 -4.24,-0.02 -0.65,-1.36 -2.65,-1.84 -3.41,-1.78 -0.2,-1.21 -1.39,-1.78 -1.39,-1.78 0,0 1.32,-0.49 2.64,-0.44 1.31,0.05 2,0.4 2.55,0.7 0.43,0.22 1.75,0.75 2.59,1.73 0.38,0.16 0.85,0.4 0.85,0.4 0,0 0.51,0.97 0.41,1.19z"/>
   <path class="fil1" d="M8.57 5.89c-0.34,-0.17 -0.76,-0.29 -0.76,-0.29 0,0 -0.55,-0.77 -2.54,-1.63l-0.04 0.08c1.1,0.52 1.9,0.98 2.51,1.79 0.36,0.14 0.77,0.28 0.77,0.28 0,0 0.18,-0.01 0.06,-0.23z"/>
   <path class="fil3" d="M9.02 5.22c0.26,-0.14 0.8,-0.27 1.22,-0.16 0.42,0.11 0.75,0.57 0.84,1.15 0.09,0.58 -0.37,1.14 -1.16,1.24 -0.79,0.09 -1.34,-0.39 -1.44,-0.84 -0.1,-0.44 -0.03,-1.09 0.54,-1.39z"/>
   <path class="fil4" d="M10.41 6.18c0.08,-0.25 0.32,-1.11 0.19,-1.62 -0.44,0.21 -1.02,1.17 -1.02,1.17 0,0 -0.88,-0.7 -1.4,-0.74 0.15,0.57 0.52,1.2 0.72,1.44 0.15,0.11 0.28,0.15 0.47,0.26 0.27,0.15 0.42,0.15 0.57,0.03 0.13,-0.1 0.33,-0.26 0.47,-0.54l0 0z"/>
   <path class="fil0" d="M10.6 4.56c0.13,0.51 -0.11,1.37 -0.19,1.62l0 0c0.03,-0.04 0.05,-0.08 0.07,-0.13 0.15,-0.35 0.51,-0.88 0.26,-1.81 -0.87,0.52 -1.16,1.49 -1.16,1.49 0,0 0.58,-0.96 1.02,-1.17z"/>
   <path class="fil0" d="M9.58 5.73c0,0 -0.85,-1.02 -1.64,-0.96 0,0.49 0.43,1.12 0.78,1.49 0.07,0.08 0.13,0.13 0.18,0.17 -0.2,-0.24 -0.57,-0.87 -0.72,-1.44 0.52,0.04 1.4,0.74 1.4,0.74z"/>
   <path class="fil2" d="M9.97 5.8c0,0 0.09,-0.57 0.3,-0.75 0.21,-0.18 0.53,0.02 -0.3,0.75z"/>
   <path class="fil2" d="M9.17 5.97c0,0 -0.25,-0.51 -0.5,-0.63 -0.25,-0.12 -0.5,0.16 0.5,0.63z"/>
   <path class="fil2" d="M4.88 3.86c-0.73,-0.14 -2.74,-0.47 -4.62,-0.23 0.96,-0.27 2.81,-0.67 4.62,0.23zm0.39 0.11c-0.81,-0.48 -2.71,-1.27 -5.27,-0.26 0,0 0.02,0.01 0.06,0.03 2.07,-0.32 4.38,0.11 4.95,0.22 -0.56,0.1 -2.34,0.48 -3.63,1.49l0.01 0.04 0 0c0.02,0 0.04,0 0.07,0 1.46,-1.12 3.51,-1.44 3.72,-1.47l0.02 0.01c-0.07,0.26 -0.48,1.8 -0.44,3.16 0.01,0.03 0.02,0.06 0.04,0.08l0.04 -0.02c-0.05,-1.45 0.41,-3.12 0.45,-3.23l-0.02 -0.05z"/>
   <polygon class="fil2" points="10.08,5.03 10.09,5.02 "/>
   <path class="fil2" d="M10.01 5.12c-0.25,0.3 -0.43,0.61 -0.43,0.61 0,0 -0.38,-0.3 -0.78,-0.51 0.28,0.2 0.62,0.53 0.52,0.68 -0.1,0.16 -0.34,0.21 -0.3,0.41 0.04,0.2 0.26,0.25 0.45,0.24 0.2,-0.01 0.29,-0.04 0.49,-0.09 0.21,-0.04 0.37,-0.18 0.33,-0.35 -0.05,-0.24 -0.41,-0.15 -0.46,-0.35 -0.03,-0.17 0.01,-0.42 0.18,-0.64z"/>
   <path class="fil1" d="M9.43 6.72c-0.11,-0.16 -0.11,-0.3 0.01,-0.33 0.06,-0.01 0.1,0.02 0.14,0.05 0.04,0.03 0.08,0.06 0.12,0.05 0.09,-0.02 0.06,-0.15 0.19,-0.16 0.13,-0.01 0.18,0.17 0.14,0.32 -0.04,0.16 -0.14,0.24 -0.26,0.25 -0.12,0.01 -0.24,-0.01 -0.34,-0.18z"/>
   <path class="fil1" d="M9.38 6.24c0.01,0.05 -0.03,0.09 -0.08,0.1 -0.05,0.01 -0.09,-0.02 -0.1,-0.07 -0.01,-0.05 0.02,-0.1 0.07,-0.11 0.05,-0.01 0.1,0.03 0.11,0.08z"/>
   <path class="fil1" d="M10.1 6.11c0.01,0.05 -0.03,0.1 -0.08,0.11 -0.05,0.01 -0.09,-0.02 -0.1,-0.07 -0.01,-0.06 0.02,-0.1 0.07,-0.11 0.05,-0.01 0.1,0.02 0.11,0.07z"/>
   <path class="fil0" d="M9.59 6.64c0.01,0.02 0,0.04 -0.02,0.04 -0.02,0.01 -0.04,-0.01 -0.05,-0.03 0,-0.02 0.01,-0.04 0.03,-0.05 0.02,0 0.04,0.01 0.04,0.04z"/>
   <path class="fil0" d="M9.91 6.57c0,0.02 -0.01,0.04 -0.03,0.05 -0.02,0 -0.04,-0.02 -0.04,-0.04 -0.01,-0.02 0,-0.04 0.02,-0.05 0.02,0 0.04,0.01 0.05,0.04z"/>
   <path class="fil5" d="M11.02 6.72c0.06,-0.16 0.09,-0.33 0.06,-0.51 -0.04,-0.27 -0.13,-0.5 -0.26,-0.69 0.01,-0.01 0.33,-0.3 0.6,-0.56 0.24,-0.97 0.8,-1.71 1.59,-2.59 0.19,0.24 1.15,1.5 1.63,2.76 -0.21,-0.05 -0.43,-0.08 -0.64,-0.08 -1.31,0 -2.51,0.92 -2.98,1.67zm3.67 -1.67c-0.49,-1.27 -1.47,-2.54 -1.63,-2.74l0.02 -0.03c0.14,-0.03 1.13,-0.28 2.32,-0.28 0.54,0 1.12,0.06 1.68,0.2 -0.27,0.1 -0.62,0.31 -0.98,0.6 -0.66,0.53 -1.32,1.33 -1.41,2.25zm-1.48 -2.88c0.48,-0.33 2.45,-1.62 4.48,-2.12 -0.14,0.18 -0.6,0.83 -0.6,1.64 0,0.14 0.01,0.29 0.04,0.44 -0.57,-0.15 -1.17,-0.2 -1.73,-0.2 -0.98,0 -1.84,0.16 -2.19,0.24zm0.08 -0.15c1.33,-1.52 3.19,-1.87 4.17,-1.99 -1.83,0.5 -3.55,1.58 -4.17,1.99z"/>
   <path class="fil6" d="M10.82 5.52c-0.02,-0.04 -0.05,-0.08 -0.07,-0.11 0.01,-0.07 0.03,-0.14 0.05,-0.22 0.22,-0.23 0.46,-0.42 0.46,-0.43 0,0 0,0 0,0l0 0c0,0 0.22,-0.92 1.72,-2.49l0 0 0 0.06c0,0.01 0.01,0.02 0.03,0.04 -0.79,0.88 -1.35,1.62 -1.59,2.59 -0.27,0.26 -0.59,0.55 -0.6,0.56z"/>
   <path class="fil7" d="M14.69 5.14l0 0c-0.02,0 -0.03,-0.01 -0.05,-0.01l0 0c-0.48,-1.26 -1.44,-2.52 -1.63,-2.76 -0.02,-0.02 -0.03,-0.03 -0.03,-0.04l0 -0.06c0.55,-0.74 2,-2.21 4.75,-2.27 0,0 -0.01,0.02 -0.04,0.05l0 0c-2.03,0.5 -4,1.79 -4.48,2.12 0.35,-0.08 1.21,-0.24 2.19,-0.24 0.56,0 1.16,0.05 1.73,0.2 0.01,0.02 0.01,0.03 0.01,0.05 0,0 0,0 0,0 -0.02,0.01 -0.04,0.01 -0.06,0.02 0,0 0,0 0,0 -0.56,-0.14 -1.14,-0.2 -1.68,-0.2 -1.19,0 -2.18,0.25 -2.32,0.28l-0.02 0.03c0.16,0.2 1.14,1.47 1.63,2.74 0,0.03 0,0.06 0,0.09l0 0zm2.77 -5.11c-0.98,0.12 -2.84,0.47 -4.17,1.99 0.62,-0.41 2.34,-1.49 4.17,-1.99z"/>
   <path class="fil0" d="M9.03 7.29c-0.47,-0.26 -1.14,-0.49 -1.84,-0.57 -0.17,-0.02 -0.33,-0.03 -0.5,-0.03 -0.65,0 -1.31,0.16 -1.85,0.55 -0.05,-1.34 0.35,-2.87 0.43,-3.17 1.08,0.51 1.87,0.97 2.47,1.77 0.28,0.11 0.59,0.22 0.71,0.27 -0.02,0.17 0,0.35 0.03,0.5 0.06,0.25 0.25,0.51 0.55,0.68zm-4.27 -0.1c-0.36,-0.67 -1.05,-1.12 -1.74,-1.39 -0.43,-0.17 -0.86,-0.26 -1.2,-0.3 0,0 0,0 -0.01,0l0 0c0,0 0,0 -0.01,0 0,0 0,0 0,0 -0.01,0 -0.02,0 -0.03,0 0,0 -0.01,0 -0.02,-0.01 0,0 0,0 0,0 0,0 0,0 -0.01,0 -0.01,0 -0.02,0 -0.04,0 0,0 0,0 0,0 -0.03,0 -0.06,0 -0.09,0 0,0 0,0 -0.01,0 0,0 -0.01,0 -0.01,0 0,0 0,0 0,0 -0.02,-0.01 -0.04,-0.01 -0.06,-0.01l0 0c-0.03,0 -0.05,0 -0.07,0.01 0,0 0,0 0,0 1.46,-1.12 3.51,-1.44 3.72,-1.47l0.02 0.01c-0.07,0.26 -0.48,1.8 -0.44,3.16zm-3.37 -1.7c0,0 0,0 0,0l0 0 0 0zm0 0c0,0 0.01,0 0.02,0 -0.01,0 -0.02,0 -0.02,0zm0.02 0c0,0 0,0 0,0 0,0 0,0 0,0zm-0.03 -0.04c-0.19,-1.02 -1.08,-1.58 -1.32,-1.71 0.55,-0.08 1.12,-0.12 1.66,-0.12 1.51,0 2.87,0.26 3.29,0.34 -0.56,0.1 -2.33,0.48 -3.63,1.49zm3.5 -1.59c-0.54,-0.11 -1.79,-0.32 -3.16,-0.32 -0.48,0 -0.97,0.03 -1.46,0.09 0.51,-0.14 1.28,-0.32 2.16,-0.32 0.77,0 1.62,0.13 2.46,0.55z"/>
   <path class="fil6" d="M8.45 6.11c-0.12,-0.05 -0.43,-0.16 -0.71,-0.27 -0.6,-0.8 -1.39,-1.26 -2.47,-1.77 0.01,-0.03 0.01,-0.04 0.02,-0.05l-0.02 -0.05c1.99,0.86 2.54,1.63 2.54,1.63l0 0c0,0 0,0 0,0 0,0 0.26,0.08 0.53,0.19 0.04,0.06 0.09,0.12 0.13,0.18 -0.01,0.05 -0.01,0.09 -0.02,0.14z"/>
   <path class="fil8" d="M9.72 7.46c-0.04,0 -0.07,0 -0.11,-0.01l0 0c0,0 0,0 0,0 0,0 0,0 0,0 -0.01,0 -0.01,0 -0.01,0 0,0 0,0 0,0 0,0 0,0 0,0 0,0 0,0 -0.01,0 0,0 0,0 0,0 -0.21,-0.01 -0.39,-0.07 -0.55,-0.16l0 0c-0.01,0 -0.01,0 -0.01,0 -0.3,-0.17 -0.49,-0.43 -0.55,-0.68 -0.03,-0.15 -0.05,-0.33 -0.03,-0.5 0.01,-0.05 0.01,-0.09 0.02,-0.14 0.08,0.11 0.17,0.21 0.25,0.29 0.07,0.08 0.13,0.13 0.18,0.17l0 0c-0.1,-0.12 -0.25,-0.34 -0.39,-0.61l0 0c0.14,0.27 0.29,0.49 0.39,0.61 0.15,0.11 0.28,0.15 0.47,0.26 0.02,0.01 0.04,0.02 0.06,0.03 0.09,0.14 0.19,0.18 0.29,0.18 0.02,0 0.03,0 0.05,0 0.12,-0.01 0.22,-0.09 0.26,-0.25 0.12,-0.1 0.27,-0.25 0.38,-0.47l0 0c0.03,-0.04 0.05,-0.08 0.07,-0.13 0.07,-0.17 0.19,-0.37 0.27,-0.64 0.02,0.03 0.05,0.07 0.07,0.11 0.13,0.19 0.22,0.42 0.26,0.69 0.03,0.18 0,0.35 -0.06,0.51l0 0c0,0 0,0 0,0l0 0c-0.16,0.36 -0.54,0.65 -1.09,0.72 0,0 0,0 0,0 0,0 0,0 0,0 0,0 0,0 0,0 0,0 -0.01,0 -0.01,0.01l0 0c-0.07,0 -0.14,0.01 -0.2,0.01zm-0.14 -1.73l0 0c0,0 -0.22,-0.27 -0.54,-0.52 0.19,-0.1 0.52,-0.19 0.85,-0.19 0.01,0 0.03,0 0.04,0 -0.25,0.38 -0.35,0.71 -0.35,0.71l0 0z"/>
   <path class="fil9" d="M9.43 6.72c-0.02,-0.01 -0.04,-0.02 -0.06,-0.03 -0.19,-0.11 -0.32,-0.15 -0.47,-0.26 -0.1,-0.12 -0.25,-0.34 -0.39,-0.61 -0.13,-0.26 -0.25,-0.55 -0.33,-0.83 0.52,0.04 1.39,0.73 1.4,0.74 -0.01,0 -0.38,-0.3 -0.78,-0.51 0.28,0.2 0.62,0.53 0.52,0.68 -0.1,0.16 -0.34,0.21 -0.3,0.41 0.03,0.16 0.18,0.22 0.33,0.24 0.01,0.05 0.04,0.11 0.08,0.17l0 0zm-0.87 -1.41c-0.19,0 -0.23,0.26 0.61,0.66 0,0 -0.25,-0.51 -0.5,-0.63 -0.04,-0.02 -0.08,-0.03 -0.11,-0.03zm1.47 1.34c0,0 0,0 0,0 0.02,-0.07 0.02,-0.15 0,-0.21 0.17,-0.06 0.3,-0.18 0.26,-0.33 -0.05,-0.24 -0.41,-0.15 -0.46,-0.35 -0.03,-0.17 0.01,-0.42 0.18,-0.64 -0.25,0.3 -0.43,0.61 -0.43,0.61l0 0c0,0 0.58,-0.96 1.02,-1.17 0.03,0.1 0.04,0.22 0.04,0.34 0,0.49 -0.17,1.08 -0.23,1.28l0 0 0 0 0 0 0 0c-0.11,0.22 -0.26,0.37 -0.38,0.47zm0.39 -1.66c-0.05,0 -0.1,0.02 -0.15,0.06 -0.21,0.18 -0.3,0.75 -0.3,0.75 0.64,-0.57 0.59,-0.81 0.45,-0.81zm-0.33 0.03l-0.01 0.01 0.01 -0.01zm-0.51 0.71l0 0 0 0z"/>
   <path class="fil0" d="M10.41 6.18l0 0c0.06,-0.2 0.23,-0.79 0.23,-1.28 0,-0.12 -0.01,-0.24 -0.04,-0.34 -0.44,0.21 -1.02,1.17 -1.02,1.17l0 0c0,0 0.1,-0.33 0.35,-0.71 0,0 0,0 0,0 0.19,-0.27 0.45,-0.57 0.81,-0.78l0 0c0.01,0.03 0.02,0.07 0.02,0.1 0,0 0,0 0,0 0,0.01 0,0.01 0,0.01 0.08,0.33 0.08,0.61 0.03,0.85 0,-0.01 0,-0.01 0.01,-0.01 -0.02,0.08 -0.04,0.15 -0.05,0.22 -0.08,0.27 -0.2,0.47 -0.27,0.64 -0.02,0.05 -0.04,0.09 -0.07,0.13l0 0 0 0z"/>
   <path class="fil0" d="M8.9 6.43c-0.05,-0.04 -0.11,-0.09 -0.18,-0.17 -0.08,-0.08 -0.17,-0.18 -0.25,-0.29 -0.04,-0.06 -0.09,-0.12 -0.13,-0.18 0,0 0,0 0,0 -0.22,-0.32 -0.4,-0.7 -0.4,-1.02l0 0c0,0 0,0 0,0 0,0 0,0 0,0 0,0 0,0 0,0 0.02,-0.01 0.05,-0.01 0.07,-0.01 0.36,0 0.73,0.22 1.03,0.45 0,0 0,0 0,0 0.32,0.25 0.54,0.52 0.54,0.52l0 0 0 0 0 0 0 0c-0.01,-0.01 -0.88,-0.7 -1.4,-0.74l0 0c0.08,0.28 0.2,0.57 0.33,0.83 0.14,0.27 0.29,0.49 0.39,0.61z"/>
   <path class="fil7" d="M9.97 5.8c0,0 0.09,-0.57 0.3,-0.75 0.05,-0.04 0.1,-0.06 0.15,-0.06 0.14,0 0.19,0.24 -0.45,0.81z"/>
   <path class="fil7" d="M9.17 5.97c-0.84,-0.4 -0.8,-0.66 -0.61,-0.66 0.03,0 0.07,0.01 0.11,0.03 0.25,0.12 0.5,0.63 0.5,0.63z"/>
   <path class="fil7" d="M4.8 7.27c0,0 -0.01,0 -0.01,-0.01 -0.01,-0.02 -0.02,-0.05 -0.03,-0.07 0,0 0,0 0,0 -0.04,-1.36 0.37,-2.9 0.44,-3.16l-0.02 -0.01c-0.21,0.03 -2.26,0.35 -3.72,1.47 0,0 0,0 0,0 0,0 0,0 0,0 -0.02,0 -0.03,0 -0.05,0 0,0 0,0 0,0 0,0 0,0 0,0 0,0 0,0 0,0 -0.01,0 -0.02,0 -0.02,0l0 0 0 0c-0.01,-0.01 -0.01,-0.03 -0.01,-0.04l0 0c1.3,-1.01 3.07,-1.39 3.63,-1.49 -0.42,-0.08 -1.78,-0.34 -3.29,-0.34 -0.54,0 -1.11,0.04 -1.66,0.12l0 0c-0.04,-0.02 -0.06,-0.03 -0.06,-0.03l0 0c0.01,0 0.03,-0.01 0.04,-0.02 0.29,-0.11 0.58,-0.2 0.85,-0.27 0.01,0 0.01,0 0.01,0 0,0 0,0 0.01,0 0.55,-0.14 1.07,-0.2 1.54,-0.2 1.32,0 2.3,0.44 2.82,0.75l0 0 0.02 0.05c-0.01,0.01 -0.01,0.02 -0.02,0.05 -0.08,0.3 -0.48,1.83 -0.43,3.17l0 0c-0.02,0.01 -0.03,0.02 -0.04,0.03l0 0zm-3.08 -3.73c1.37,0 2.62,0.21 3.16,0.32 -0.84,-0.42 -1.69,-0.55 -2.46,-0.55 -0.88,0 -1.65,0.18 -2.16,0.32 0.49,-0.06 0.98,-0.09 1.46,-0.09z"/>
   <polygon class="fil7" points="10.08,5.03 10.09,5.02 "/>
   <path class="fil7" d="M9.35 6.55c-0.15,-0.02 -0.3,-0.08 -0.33,-0.24 -0.04,-0.2 0.2,-0.25 0.3,-0.41 0.1,-0.15 -0.24,-0.48 -0.52,-0.68 0.4,0.21 0.77,0.51 0.78,0.51l0 0 0 0 0 0 0 0c0,0 0.18,-0.31 0.43,-0.61 -0.17,0.22 -0.21,0.47 -0.18,0.64 0.05,0.2 0.41,0.11 0.46,0.35 0.04,0.15 -0.09,0.27 -0.26,0.33 -0.02,-0.06 -0.06,-0.11 -0.13,-0.11 0,0 -0.01,0 -0.01,0 -0.13,0.01 -0.1,0.14 -0.19,0.16 -0.01,0 -0.01,0 -0.01,0 -0.04,0 -0.07,-0.03 -0.11,-0.05 -0.03,-0.02 -0.07,-0.05 -0.11,-0.05 -0.01,0 -0.02,0 -0.03,0 -0.07,0.02 -0.1,0.08 -0.09,0.16zm-0.06 -0.39c-0.01,0 -0.01,0 -0.02,0 -0.05,0.01 -0.08,0.06 -0.07,0.11 0.01,0.04 0.04,0.07 0.09,0.07 0,0 0.01,0 0.01,0 0.05,-0.01 0.09,-0.05 0.08,-0.1 -0.01,-0.05 -0.05,-0.08 -0.09,-0.08zm0.72 -0.12c-0.01,0 -0.01,0 -0.02,0 -0.05,0.01 -0.08,0.05 -0.07,0.11 0.01,0.04 0.05,0.07 0.09,0.07 0,0 0.01,0 0.01,0 0.05,-0.01 0.09,-0.06 0.08,-0.11 -0.01,-0.04 -0.05,-0.07 -0.09,-0.07z"/>
   <path class="fil10" d="M9.72 6.9c-0.1,0 -0.2,-0.04 -0.29,-0.18l0 0c-0.04,-0.06 -0.07,-0.12 -0.08,-0.17 -0.01,-0.08 0.02,-0.14 0.09,-0.16 0.01,0 0.02,0 0.03,0 0.04,0 0.08,0.03 0.11,0.05 0.04,0.02 0.07,0.05 0.11,0.05 0,0 0,0 0.01,0 0.09,-0.02 0.06,-0.15 0.19,-0.16 0,0 0.01,0 0.01,0 0.07,0 0.11,0.05 0.13,0.11 0.02,0.06 0.02,0.14 0,0.21 0,0 0,0 0,0 -0.04,0.16 -0.14,0.24 -0.26,0.25 -0.02,0 -0.03,0 -0.05,0zm-0.16 -0.3c-0.01,0 -0.01,0 -0.01,0 -0.02,0.01 -0.03,0.03 -0.03,0.05 0.01,0.02 0.02,0.04 0.04,0.04 0,0 0.01,-0.01 0.01,-0.01 0.02,0 0.03,-0.02 0.02,-0.04 0,-0.02 -0.02,-0.04 -0.03,-0.04zm0.31 -0.07c0,0 0,0 -0.01,0 -0.02,0.01 -0.03,0.03 -0.02,0.05 0,0.02 0.02,0.04 0.04,0.04 0,0 0,0 0,0 0.02,-0.01 0.03,-0.03 0.03,-0.05 -0.01,-0.02 -0.02,-0.04 -0.04,-0.04z"/>
   <path class="fil11" d="M9.29 6.34c-0.05,0 -0.08,-0.03 -0.09,-0.07 -0.01,-0.05 0.02,-0.1 0.07,-0.11 0.01,0 0.01,0 0.02,0 0.04,0 0.08,0.03 0.09,0.08 0.01,0.05 -0.03,0.09 -0.08,0.1 0,0 -0.01,0 -0.01,0z"/>
   <path class="fil11" d="M10.01 6.22c-0.04,0 -0.08,-0.03 -0.09,-0.07 -0.01,-0.06 0.02,-0.1 0.07,-0.11 0.01,0 0.01,0 0.02,0 0.04,0 0.08,0.03 0.09,0.07 0.01,0.05 -0.03,0.1 -0.08,0.11 0,0 -0.01,0 -0.01,0z"/>
   <path class="fil0" d="M9.56 6.69c-0.02,0 -0.03,-0.02 -0.04,-0.04 0,-0.02 0.01,-0.04 0.03,-0.05 0,0 0,0 0.01,0 0.01,0 0.03,0.02 0.03,0.04 0.01,0.02 0,0.04 -0.02,0.04 0,0 -0.01,0.01 -0.01,0.01z"/>
   <path class="fil0" d="M9.88 6.62c-0.02,0 -0.04,-0.02 -0.04,-0.04 -0.01,-0.02 0,-0.04 0.02,-0.05 0.01,0 0.01,0 0.01,0 0.02,0 0.03,0.02 0.04,0.04 0,0.02 -0.01,0.04 -0.03,0.05 0,0 0,0 0,0z"/>
  </g>
 </g>
</svg>
