<?xml version="1.0" encoding="UTF-8"?>
<!DOCTYPE svg PUBLIC "-//W3C//DTD SVG 1.1//EN" "http://www.w3.org/Graphics/SVG/1.1/DTD/svg11.dtd">
<!-- Creator: CorelDRAW -->
<svg xmlns="http://www.w3.org/2000/svg" xml:space="preserve" width="1249px" height="900px" version="1.1" style="shape-rendering:geometricPrecision; text-rendering:geometricPrecision; image-rendering:optimizeQuality; fill-rule:evenodd; clip-rule:evenodd"
viewBox="0 0 260.52 187.78"
 xmlns:xlink="http://www.w3.org/1999/xlink"
 xmlns:xodm="http://www.corel.com/coreldraw/odm/2003">
 <defs>
  <style type="text/css">
   <![CDATA[
    .fil1 {fill:none}
    .fil0 {fill:#11353D}
    .fil7 {fill:black;fill-rule:nonzero}
    .fil6 {fill:#082026;fill-rule:nonzero}
    .fil5 {fill:#11353D;fill-rule:nonzero}
    .fil4 {fill:#264E56;fill-rule:nonzero}
    .fil8 {fill:#293E3F;fill-rule:nonzero}
    .fil2 {fill:#2F656B;fill-rule:nonzero}
    .fil3 {fill:#367A7C;fill-rule:nonzero}
    .fil9 {fill:white;fill-rule:nonzero}
    .fil10 {fill:url(#id0)}
    .fil11 {fill:url(#id1)}
    .fil12 {fill:url(#id2)}
   ]]>
  </style>
  <linearGradient id="id0" gradientUnits="userSpaceOnUse" x1="232.73" y1="147.09" x2="238.99" y2="168.5">
   <stop offset="0" style="stop-opacity:1; stop-color:#002E38"/>
   <stop offset="1" style="stop-opacity:1; stop-color:black"/>
  </linearGradient>
  <linearGradient id="id1" gradientUnits="userSpaceOnUse" x1="232.73" y1="147.09" x2="238.99" y2="168.56">
   <stop offset="0" style="stop-opacity:1; stop-color:#002530"/>
   <stop offset="1" style="stop-opacity:1; stop-color:black"/>
  </linearGradient>
  <linearGradient id="id2" gradientUnits="userSpaceOnUse" x1="232.73" y1="147.09" x2="238.99" y2="168.5">
   <stop offset="0" style="stop-opacity:1; stop-color:#001113"/>
   <stop offset="1" style="stop-opacity:1; stop-color:black"/>
  </linearGradient>
 </defs>
 <g id="Слой_x0020_1">
  <metadata id="CorelCorpID_0Corel-Layer"/>
  <g id="_1596540370784">
   <path class="fil0" d="M0 175.1c86.84,0 174.83,-25.47 260.52,-27.81l0 40.49 -260.52 0 0 -12.68z"/>
   <polygon class="fil1" points="0,0 260.52,0 260.52,187.78 0,187.78 "/>
   <g>
    <path class="fil2" d="M180.03 117.51c-2.59,1.03 -2.7,0.21 -5.62,0.75 -2.91,0.55 -3.82,0.04 -5.61,-0.49 -0.78,-0.23 -1.54,-0.72 -2.29,-1.45l0 0c-1.87,-1.07 -3.7,-0.36 -6.49,-2 -2.05,-1.17 -4.14,-0.89 -4.14,-0.89 0,0 1.39,-0.7 3.62,-0.06 2.24,0.64 3.74,1.38 5.06,0.58 0.01,0 -0.62,-0.93 -0.94,-1.44 -1.76,-2.84 -2.66,-2.87 -5.14,-3.53 -2.49,-0.66 -3.34,-1.79 -4.36,-2.95 2.08,1.63 3.35,1.35 5.89,2.03 2.55,0.68 3.91,1.36 5.33,3.69 1.41,2.33 2.54,3.69 5.04,3.89 -2.39,-3.31 -3.61,-6.33 -1.44,-9.01 2.17,-2.68 2.22,-2.46 1.92,-3.48 -0.3,-1.01 -0.91,-1.15 -1.34,-1.92 -0.44,-0.77 -0.94,-1.07 -2.56,-1.17 -1.63,-0.1 -3.75,-0.3 -5.24,-1.79 -1.49,-1.49 -2.2,-3.58 -4.64,-3.64 1.65,-0.58 3,0.3 4.31,1.64 1.3,1.34 2.35,2.2 4.23,2.28 1.87,0.08 2.42,0.28 2.42,0.28 0,0 -0.52,-0.27 -1,-3.55 -0.48,-3.28 -2.09,-3.97 -2.09,-3.97 0,0 1.66,0.3 2.7,2.82 1.05,2.52 1.42,4.32 2.43,5.42 1.02,1.1 1.95,1.92 2.28,1.96 0.28,-1.02 0.46,-3.27 -0.07,-5.51 -0.54,-2.25 -1.28,-3.9 -2.71,-4.75 -1.43,-0.86 -2.47,-1.94 -3.45,-3.55 -0.99,-1.61 -1.57,-3.3 -2.33,-4.05 -0.75,-0.75 -1.52,-0.73 -2.47,-0.55 -0.95,0.18 -2.1,-0.76 -2.82,-1.27 -0.72,-0.52 -2.16,-0.15 -2.67,0.24 1.04,-1.08 2.47,-1.45 3.43,-0.91 0.95,0.55 2.07,0.76 3.53,0.69 1.46,-0.07 2.52,0.8 3.78,2.75 1.25,1.94 1.89,3.18 2.98,3.98 1.09,0.79 2.09,1.18 2.7,2.06 0.13,-2.29 0.8,-3.32 1.94,-4.31 1.15,-0.98 1.98,-2.37 1.66,-3.65 -0.33,-1.28 -1.86,-1.73 -2.81,-2.77 -0.96,-1.04 -0.54,-2.08 -1.67,-2.13 -1.13,-0.05 -2.27,0.5 -3.5,-0.03 1.44,0.03 1.97,-0.45 2.9,-0.67 0.93,-0.21 1.96,-0.14 2.47,1.15 0.52,1.29 2.11,1.33 3.23,2.72 1.12,1.39 1.12,2.97 1.12,2.97 0,0 2.25,-1.26 2.32,-3.34 0.06,-2.09 -1.03,-2.44 -0.78,-3.77 0.26,-1.33 0.19,-3.08 -0.64,-3.4 -0.84,-0.32 -1.52,-0.32 -1.51,-1.29 0.24,0.74 0.98,0.57 1.59,0.58 0.61,0.01 1.59,0.35 1.62,2.79 0.04,2.43 0.57,2.36 0.91,2.62 0.34,0.26 0.39,1.22 0.15,2.87 -0.23,1.65 -1.07,2.67 -2.52,3.56 -1.45,0.9 -3.12,2.07 -4.04,3.85 -0.92,1.78 -0.8,2.49 -0.23,4.02 0.58,1.52 1.3,2.9 1.77,5.28 0.48,2.38 -0.03,3.67 -0.95,5.81 -0.93,2.13 -1.85,3.24 -1.71,5.24 0.14,2.01 1.1,3.14 3.31,2.88 2.21,-0.26 3.18,-0.85 3.63,-1.25 -1.44,-1.48 -1.99,-2.8 -1.77,-3.66 0.21,-0.86 0.26,-1.57 -0.18,-2.83 -0.44,-1.25 -0.09,-2.21 0.84,-3.61 0.94,-1.4 0.37,-2.91 -0.4,-4.81 -0.77,-1.89 -2.25,-4.79 1.08,-8 -1.31,2.05 -1.76,3.41 -1.09,5.24 0.66,1.83 2.26,3.45 2.16,5.74 -0.1,2.3 -1.24,3.58 -0.95,4.75 0.3,1.17 0.3,1.46 0.3,1.46 0,0 1.03,-0.8 1.26,-2.22 0.23,-1.41 0.9,-2.32 2.76,-2.39 1.85,-0.07 2.8,-0.17 3.13,-0.97 -0.34,1.59 -1.57,1.38 -2.86,1.76 -1.29,0.38 -1.21,2.18 -2.09,3.43 -0.88,1.25 -0.93,3.05 0.29,3.85 1.22,0.81 2.28,0.95 4.42,0.97 2.13,0.02 4.69,2.33 5.3,4.18 0.92,2.79 1.54,2.84 2.22,5.09 0.67,2.26 1.22,4.07 2.68,2.48 1.46,-1.58 3.08,-3.82 3.42,-5.62 0.35,-1.81 0.57,-3.48 -0.75,-5.57 -1.31,-2.09 -2.61,-4.89 -1.89,-7.74 0.55,-2.18 -1.34,-4.02 -1.96,-4.47 -0.62,-0.45 -1.73,-0.12 -4.15,-0.3 -2.43,-0.19 -3.1,-0.02 -4.47,-1.67 -1.37,-1.65 -3.2,-2.14 -4.35,-1.96 2.55,-0.6 3.48,-0.14 4.5,0.62 1.02,0.75 0.99,0.86 3.97,0.84 2.99,-0.02 4.33,0.43 4.33,0.43 0,0 -1,-1.72 -2.35,-2.45 -1.35,-0.74 -1.73,-1.48 -2.57,-2.56 -0.83,-1.09 -2.16,-1.62 -2.16,-1.62 0,0 1.63,0.32 2.96,1.46 1.33,1.15 1.83,1.46 3.76,2.47 1.92,1.02 2.51,2.24 3.22,3.67 0.61,0.37 1.29,1.05 1.29,1.05 0,0 -0.33,-1.31 0.86,-4.04 1.19,-2.73 -0.3,-5.48 -0.3,-5.48 0,0 1.47,1.4 1.33,4.73 -0.14,3.33 -0.58,5.17 -0.35,7.86 0.23,2.7 0.17,3.16 0.77,4.79 0.6,1.62 0.77,1.9 1.45,2.6 1.57,-2.6 2.5,-4.23 2.66,-6.08 0.15,-1.86 -0.23,-3.94 -1,-6.28 -0.78,-2.34 -0.76,-5.99 -1.44,-7.83 -0.68,-1.84 -2.42,-2.78 -3.31,-3.55 -0.9,-0.77 -0.97,-1.14 -3.32,-0.72 -2.34,0.41 -3.34,0.04 -4.73,0.35 -1.38,0.32 -3.52,0.96 -5,-0.16 1.48,0.36 2.7,0.09 4.31,-0.64 1.61,-0.72 1.65,-0.62 2.91,-0.74 1.26,-0.12 2.19,-0.81 2.19,-0.81 0,0 -2.29,-1.29 -3.82,-2 -1.52,-0.71 -3.62,-0.53 -5.01,0.49 -1.4,1.03 -1.73,1.25 -2.55,1.36 1.52,-0.81 1.53,-2.06 3.09,-2.63 1.56,-0.56 3.95,-0.83 5.74,-0.08 1.78,0.75 3.39,1.86 4.87,2.45 1.49,0.59 3.94,1.89 4.9,2.78 1.12,-2.09 2.99,-3.41 2.53,-5.89 -0.46,-2.49 -0.45,-2.69 -0.52,-3.85 -0.11,-1.74 -1.87,-2.73 -2.02,-4.39 0.83,1.85 1.48,1.74 2.17,2.48 0.69,0.75 1.17,1.45 1.38,4.15 0.21,2.69 1.37,3.4 0.26,5.56 -1.11,2.16 -1.97,3.42 -1.9,4.28 0.75,1.81 0.72,2.9 1.55,4.88 0.83,1.98 0.48,2.81 0.82,4.78 0.34,1.96 0.85,2.3 1.81,2.04 0.96,-0.25 1.81,-1.92 2,-4.11 0.19,-2.19 -0.14,-3.49 0.35,-4.83 0.48,-1.34 0.09,-3.5 0.05,-5.07 -0.03,-1.58 0.49,-2.26 0.13,-5.9 -0.36,-3.64 1.23,-4.72 2,-6.43 0.76,-1.71 1.83,-3.07 3.22,-3.97 1.38,-0.9 2.57,-1.19 4.86,-1.06 -2.71,0.36 -3.5,0.9 -5.26,2.82 -1.76,1.92 -2.15,3.06 -2.48,4.99 -0.32,1.93 -0.81,3.22 -0.45,4.95 0.36,1.73 0.46,2.66 0.46,2.66 0,0 2.22,-2.06 3.34,-3.83 1.11,-1.78 0.73,-2.7 2.16,-4.44 1.43,-1.75 0.78,-2.2 2.6,-4.4 -1.04,1.97 -0.49,2.61 -1.71,4.58 -1.21,1.97 -1.24,4.04 -2.61,6.41 -1.37,2.37 -3.56,4.48 -3.56,4.48 0,0 0.15,1.88 0.14,3.49 -0.02,1.61 -0.43,4 -0.32,4.88 2.15,-1.51 3.83,-3.62 3.83,-3.62 0,0 0.93,-0.33 1.14,0.48 -0.81,1.76 -2.37,3.3 -3.3,4.54 -0.93,1.25 -1.7,2.32 -1.7,2.32 0,0 -0.19,2.82 -1.32,5.6 -1.13,2.77 -2.79,6.41 -2.79,6.41 0,0 2.36,-0.14 3.5,-0.35 1.44,-1.08 2.32,-1 2.89,-2.07 0.57,-1.07 1.63,-1.41 3.13,-1.61 -1.69,0.55 -2.14,1.51 -2.56,2.4 -0.42,0.9 -1.14,1.43 -1.01,1.84 0.14,0.42 3.09,-0.41 4.6,-0.41 0.61,0.76 0.56,1.3 0.56,1.3 0,0 -0.51,0.58 -2.41,0.53 -1.9,-0.05 -2.06,0.86 -4.55,0.94 -2.49,0.08 -3.78,0.74 -4.63,1.67 -0.84,0.92 -1.27,1.39 -1.59,4.1 -0.32,2.72 -1.46,4.37 -1.88,5.78 -0.42,1.41 -0.72,3.79 -0.72,3.79l1.13 7.41c0.34,2.57 0.98,6.92 1.92,9.72 0.94,2.8 1.47,3.52 3.77,4.84 2.29,1.32 2.65,2.46 4.08,4 1.44,1.54 2.38,1.36 3.61,2.65 1.22,1.29 1.26,1.25 2.51,2.33 -1.65,-0.84 -2.45,-1.68 -4.64,-2.17 -2.19,-0.5 -3.44,-0.74 -5.27,-1.94 -1.82,-1.21 -2.84,-2.16 -3.52,-1.67 -0.24,0.28 0.02,1.1 0.09,2.72 0.06,1.62 0.11,1.23 0.82,2.13 0.71,0.89 0.8,1.41 0.8,1.41 0,0 -0.67,-0.85 -1.75,-1.44 -1.07,-0.59 -0.46,-1.57 -2.11,-2.8 -1.65,-1.23 -2.74,-1.54 -4.05,-1.05 -1.32,0.48 0.13,1.17 0.97,2.28 0.84,1.11 0.58,2.04 1.98,3.12 1.39,1.09 3.82,2.57 3.39,4.92 -0.49,-1.54 -1.52,-1.99 -3.43,-2.75 -1.92,-0.76 -2.47,-1.6 -3.94,-2.88 -1.48,-1.28 -3.32,-1.16 -4.28,-1.82 -0.96,-0.66 -0.83,-0.04 -1.03,1.47 -0.21,1.5 -0.78,4.63 -2.79,6.25 -2,1.62 -3.41,3.67 -3.36,5.21 -0.07,-3.37 0.99,-4.46 1.78,-5.94 0.8,-1.48 1.15,-2.81 0.67,-5.08 -0.29,-1.39 -0.6,-1.62 -1.33,-1.76 -1.4,-0.28 -2.85,0.68 -5.7,2.77 -2.85,2.08 -3.77,1.75 -5.15,3.25 -1.38,1.51 -2.65,2.44 -4.69,3.28 3.16,-2.01 3.75,-4.7 4.96,-6.07 1.21,-1.37 2.79,-1.96 2.67,-2.88 0,0 2.33,-18.74 0.62,-27.58 -1.71,-8.84 -2.74,-11.66 -5.56,-11.1z"/>
    <path class="fil3" d="M207.2 158.22c-1.4,-1.08 -1.14,-2.01 -1.98,-3.12 -0.84,-1.11 -2.29,-1.8 -0.97,-2.28 0.12,-0.05 0.25,-0.08 0.37,-0.12 -0.86,-1.73 -2.16,-3.3 -2.35,-4.95 -0.21,-1.84 -0.77,-5.13 -0.16,-8.32 0.61,-3.2 -0.01,-4.42 -0.39,-6.54 -0.38,-2.12 -0.12,-3.96 -0.11,-4.85 0.02,-0.89 -0.33,-0.96 -0.92,-0.53 -0.59,0.42 -1.2,0.3 -1.32,-0.62 -0.13,-0.93 0.23,-1.62 2.03,-2.88 1.79,-1.26 2.8,-4.41 3.22,-6.36 0.41,-1.94 0.28,-3.51 -0.28,-3.47 -0.56,0.04 -0.66,1.86 -1.4,3.92 -0.74,2.07 -1.59,4.14 -3.69,5.97 -2.09,1.83 -1.95,3.7 -1.54,5.12 0.42,1.41 0.49,3.06 -1.05,2.44 -1.54,-0.62 -1.69,-2.64 -1.79,-5.61 -0.09,-2.97 -2.28,-4.07 -3.48,-5.15 -1.19,-1.08 -2.02,-3.77 -2.55,-6.04 -0.53,-2.27 -1.72,-3.54 -3.09,-3.55 -1.36,0 -0.88,1.29 0.32,2.79 1.19,1.5 1.27,2.25 1.53,4.44 0.26,2.19 -0.07,3.4 0.65,4.29 0.72,0.88 0.8,2.04 1.51,2.81 0.71,0.78 0.94,-0.01 0.88,-0.76 -0.06,-0.74 0.51,-1.01 1.16,0.07 0.66,1.09 0.65,1.88 0.13,2.52 -0.52,0.63 -0.96,1.26 -0.98,3.67 -0.01,2.42 -0.74,3.99 -1.17,5.26 -0.43,1.26 -0.31,3.36 0.41,4.51 0.72,1.15 1.37,0.61 1.37,-0.75 0.01,-1.36 -0.13,-2.93 0.62,-2.99 0.75,-0.06 0.8,0.91 1.06,2.95 0.25,2.04 0.43,4.17 -0.73,5.16 -1.15,0.98 -1.53,2.35 -1.4,4.45 0.14,2.09 -1.02,2.51 -1.37,3.83 -0.35,1.32 -0.82,2.88 -2.3,4.89 2.68,-1.95 4.08,-2.85 5.44,-2.58 0.73,0.14 1.04,0.37 1.33,1.76 0.48,2.27 0.13,3.6 -0.67,5.08 -0.79,1.48 -1.85,2.57 -1.78,5.94 -0.05,-1.54 1.36,-3.59 3.36,-5.21 2.01,-1.62 2.58,-4.75 2.79,-6.25 0.2,-1.51 0.07,-2.13 1.03,-1.47 0.96,0.66 2.8,0.54 4.28,1.82 1.47,1.28 2.02,2.12 3.94,2.88 1.91,0.76 2.94,1.21 3.43,2.75 0.43,-2.35 -2,-3.83 -3.39,-4.92z"/>
    <path class="fil4" d="M168.55 136.29c-1.71,0.26 -2.73,-0.93 -3.93,-2.84 -1.2,-1.92 -3.02,-2.01 -5.78,-2.02 -2.75,0 -3.55,-0.35 -4.67,-0.8 1.76,1.35 2.75,1.67 4.69,1.78 1.94,0.12 3.45,0.37 3.89,1.67 0.44,1.3 1.21,2.27 1.91,2.73 0.7,0.46 3.89,-0.52 3.89,-0.52z"/>
    <path class="fil4" d="M181.78 122.51c-0.16,0.46 -0.63,0.69 -1.52,0.68 -0.88,0 -2.05,0.28 -3.14,1.88 -1.09,1.61 -0.87,2.66 -2.26,2.8 -0.87,0.09 -1.47,0.15 -2.83,-1.38 -1.36,-1.53 -2.59,-1.82 -4.71,-1.71 -2.12,0.11 -2.79,-0.93 -3.97,-2.61 -1.19,-1.68 -2.96,-2.69 -4.86,-2.41 -1.9,0.28 -2.76,0.57 -4.12,0.02 1.53,1.48 3.69,0.86 4.95,1.25 1.26,0.38 2.15,1.77 3.11,2.9 0.95,1.13 0.28,1.72 -2.22,1.46 -2.51,-0.27 -3.52,0.4 -5.62,1.31 -2.09,0.91 -4.26,1.8 -6.85,1.6 3.7,1.11 6.61,-0.26 8.45,-0.61 1.84,-0.35 4.42,0.16 7.09,-0.4 2.67,-0.56 5.27,-1.01 6.43,0.29 1.16,1.3 2.11,1.5 3.32,2.4 1.2,0.89 1.29,1.99 0.29,3.48 -1.01,1.5 -3.69,2.91 -6.48,3.09 -2.8,0.17 -5.3,0.61 -6.41,1.54 -1.11,0.93 -1.64,1.68 -2.58,1.6 -0.94,-0.07 -2.17,-0.26 -2.96,-1.28 -0.8,-1.03 -1.15,-2.74 -4.31,-3.22 -3.16,-0.48 -4.04,0.82 -4.48,1.68 -0.44,0.86 -0.75,1.94 -2.65,2.37 2.37,0.39 3.24,-1.52 4.99,-2.16 1.76,-0.63 2.94,0.11 4.15,1.46 1.21,1.35 1.8,2.5 3.26,2.76 1.47,0.25 2.29,0.69 0.52,2.49 -1.78,1.8 -4.3,1.36 -6.22,1.12 -1.92,-0.25 -3.25,0.16 -5.44,2.97 1.42,-1.63 4.36,-2.2 6.95,-1.32 2.58,0.89 5.33,0.02 7.02,-2.2 1.69,-2.21 2.28,-3.68 3.77,-4.51 1.5,-0.84 3.51,-0.64 6.87,-0.94 3.36,-0.31 3.69,-1.23 4.24,-0.85 0,0 2.13,-3.9 3.99,-6.99 1.86,-3.08 4.89,-3.67 4.96,-6.14 0.07,-2.48 -0.73,-2.42 -0.73,-2.42z"/>
    <path class="fil4" d="M174.82 117.86c-2.92,0.55 -4.23,0.44 -6.02,-0.09 -0.78,-0.23 -1.54,-0.72 -2.29,-1.45l0 0c-1.87,-1.07 -3.69,-0.36 -6.49,-2 -2.05,-1.17 -4.14,-0.89 -4.14,-0.89 0,0 1.39,-0.7 3.62,-0.06 2.24,0.64 3.7,1.36 5.06,0.58 0.01,0 -0.62,-0.93 -0.94,-1.44 -1.76,-2.84 -2.66,-2.87 -5.14,-3.53 -2.49,-0.66 -3.34,-1.79 -4.36,-2.95 2.08,1.63 3.35,1.35 5.89,2.03 2.55,0.68 3.91,1.36 5.33,3.69 1.41,2.33 2.54,3.69 5.04,3.89 -2.39,-3.31 -3.61,-6.33 -1.44,-9.01 1.17,-1.45 1.72,-2.05 1.94,-2.46 0.51,2.55 -1.31,7.19 0.64,9.47 1.2,1.4 5.05,0.63 8.78,0.29 2.84,-0.26 4.27,-0.1 5.04,2.92 0.96,3.76 -0.3,3.17 -0.1,5.03 0.19,1.86 1.23,1.72 2.4,3.94 1.17,2.22 1.76,5.23 0.99,7.37 -0.77,2.15 -0.91,3.3 -0.39,5.54 0.53,2.23 -0.05,2.98 -0.31,4.41 -0.26,1.44 0.19,2.55 0.84,4.01 0.65,1.46 0.88,2.71 -0.09,4.46 -0.96,1.75 -2.2,3.5 -4.19,5.54 0.44,-0.46 0.54,-0.74 0.48,-0.96 -0.07,-0.23 -0.29,-0.53 -1.83,-0.85 -1.53,-0.32 -0.42,-3.02 1.26,-7.42 1.67,-4.4 -0.06,-11.82 -0.61,-15.01 -0.56,-3.2 -1.25,-9.29 -1.19,-12.57 0.06,-3.28 -1.85,-2.97 -4.03,-2.81 -2.19,0.17 -3.75,0.33 -3.75,0.33z"/>
    <path class="fil5" d="M226.73 137.82c1.21,1.75 0.98,2.54 2.37,5.03 1.39,2.5 2.98,2.81 5.58,2.76 2.6,-0.05 1.94,-0.15 4.7,-0.14 2.76,0.01 3.28,-1.14 4.61,-1.61 -2.24,0.46 -2.83,1.65 -5.3,0.71 -1.26,-0.48 -2.5,-0.34 -3.59,-0.19 -1.04,0.14 -1.96,0.28 -2.64,-0.13 -1.39,-0.83 -1.62,-2.35 -2.28,-3.81 -0.56,-1.21 -0.39,-1.87 0.68,-1.86 0,0 -2.75,-1.93 -4.13,-0.76z"/>
    <path class="fil4" d="M216.64 125.58c1.17,-0.64 3.56,-0.36 5.25,0.96 2.67,2.09 1.62,3.63 2.4,8.13 0.77,4.5 6.69,3.89 8.77,3.88 2.08,-0.02 3.13,1.46 5.82,1.21 2.68,-0.24 4,-0.53 6.05,0.4 -2.35,-2.06 -5.36,-1.39 -7.76,-1.86 -1.9,-0.37 -2.6,-1.39 -4.1,-1.6 -1.5,-0.22 -2.98,0.32 -4.56,-0.49 -1.58,-0.8 -1.7,-2.26 -1.73,-5.01 -0.03,-2.75 -1.09,-5.55 -3.7,-7.05 1.21,0.03 4.09,0.96 6.44,2.19 2.36,1.23 3.55,1.64 9,0.94 5.45,-0.69 6.67,-4.03 10.15,-6.46 3.49,-2.43 7.12,-2.72 9.52,-2.52 -5.89,-2.04 -9.35,0.39 -12.09,2.23 -2.73,1.84 -4.1,3.72 -7.86,4.38 -3.76,0.65 -4.94,0.06 -7.55,-1.1 0.6,-0.31 1.51,-1.11 2.07,-2.62 0.55,-1.51 1.87,-1.8 3.08,-2.6 1.21,-0.81 1.38,-2.68 1.85,-3.94 0.47,-1.27 1.84,-2.56 1.84,-2.56 0,0 -1.93,1.09 -2.81,2.68 -0.88,1.6 -1.31,2.89 -3.93,4.11 -0.04,-1.95 -1.27,-2.09 -1.56,-4.28 -0.3,-2.19 1.07,-4.63 2.21,-5.99 -1.79,1.52 -3.56,3.27 -3.37,6.11 0.2,2.84 2.09,5.15 0.48,6.65 -1.93,1.81 -2.34,1.07 -5.68,-0.18 -3.34,-1.25 -5.08,0.31 -8.44,1.25 -3.36,0.94 -2.67,2.89 -4.98,3.62 -2.78,0.88 -4.59,0.62 -4.59,0.62 0,0 0.3,-2.38 0.72,-3.79 0.42,-1.41 1.56,-3.06 1.88,-5.78 0.32,-2.71 0.75,-3.18 1.59,-4.1 0.85,-0.93 2.14,-1.59 4.63,-1.67 2.49,-0.08 2.65,-0.99 4.55,-0.94 1.9,0.05 2.41,-0.53 2.41,-0.53 0,0 0.05,-0.54 -0.56,-1.3 -1.51,0 -4.46,0.83 -4.6,0.41 -0.13,-0.41 0.59,-0.94 1.01,-1.84 0.42,-0.89 0.87,-1.85 2.56,-2.4 -1.5,0.2 -2.56,0.54 -3.13,1.61 -0.57,1.07 -1.45,0.99 -2.89,2.07 -1.14,0.21 -3.5,0.35 -3.5,0.35 0,0 1.66,-3.64 2.79,-6.41 1.13,-2.78 1.32,-5.6 1.32,-5.6 0,0 0.77,-1.07 1.7,-2.32 0.93,-1.24 2.49,-2.78 3.3,-4.54 -0.21,-0.81 -1.14,-0.48 -1.14,-0.48 0,0 -1.68,2.11 -3.83,3.62 -0.11,-0.88 0.3,-3.27 0.32,-4.88 0.01,-1.61 -0.14,-3.49 -0.14,-3.49 0,0 2.19,-2.11 3.56,-4.48 1.37,-2.37 1.4,-4.44 2.61,-6.41 1.22,-1.97 0.67,-2.61 1.71,-4.58 -1.82,2.2 -1.17,2.65 -2.6,4.4 -1.43,1.74 -1.05,2.66 -2.16,4.44 -1.12,1.77 -3.34,3.83 -3.34,3.83 0,0 -0.1,-0.93 -0.46,-2.66 -0.36,-1.73 0.13,-3.02 0.45,-4.95 0.33,-1.93 0.72,-3.07 2.48,-4.99 1.76,-1.92 2.55,-2.46 5.26,-2.82 -2.29,-0.13 -3.48,0.16 -4.86,1.06 -1.39,0.9 -2.46,2.26 -3.22,3.97 -0.11,0.25 -0.24,0.48 -0.38,0.71 -0.64,1.27 -1.58,3.49 -0.88,7.58 0.7,4.09 -0.07,5.2 -0.34,10.38 -0.28,5.18 -1.82,12.72 -4.27,17.68 -2.44,4.96 -4.6,11.31 -5.75,17.98 -1.15,6.67 0.8,9.57 0.77,12.78 -0.03,3.21 0.47,6.19 1.15,8.55 0.67,2.35 2.52,2.84 3.04,4.62 0.13,0.42 -1.24,0.84 -0.68,1.85 0.12,0.09 0.24,0.17 0.36,0.26 1.65,1.23 1.04,2.21 2.11,2.8 1.08,0.59 1.75,1.44 1.75,1.44 0,0 -0.09,-0.52 -0.8,-1.41 -0.71,-0.9 -0.76,-0.51 -0.82,-2.13 -0.07,-1.62 -0.33,-2.44 -0.09,-2.72 0.68,-0.49 1.7,0.46 3.52,1.67 1.83,1.2 3.08,1.44 5.27,1.94 2.19,0.49 2.99,1.33 4.64,2.17 -1.25,-1.08 -1.29,-1.04 -2.51,-2.33 -1.23,-1.29 -2.17,-1.11 -3.61,-2.65 -1.43,-1.54 -1.79,-2.68 -4.08,-4 -2.3,-1.32 -2.83,-2.04 -3.77,-4.84 -0.94,-2.8 -1.58,-7.15 -1.92,-9.72 -0.35,-2.58 0.46,-3.94 1.58,-4.34 1.13,-0.41 3.32,-0.62 4.76,-1.84 1.17,-0.93 1.28,-1.78 2.31,-2.33z"/>
    <path class="fil4" d="M177.53 83.28c0.02,0.21 0.04,0.42 0.07,0.64 0,0 0,-0.25 -0.07,-0.64z"/>
    <path class="fil4" d="M172.62 91.04c-0.26,3.6 0.63,7.17 -0.36,12.17 -0.99,4.99 -1.82,7.7 0.42,9 1.33,0.77 2.63,0.18 3.37,-0.56 -1.62,-0.1 -2.35,-1.18 -2.47,-2.91 -0.14,-2 0.78,-3.11 1.71,-5.24 0.92,-2.14 1.43,-3.43 0.95,-5.81 -0.47,-2.38 -1.19,-3.76 -1.77,-5.28 -0.57,-1.53 -0.69,-2.24 0.23,-4.02 0.92,-1.78 2.59,-2.95 4.04,-3.85 1.45,-0.89 2.29,-1.91 2.52,-3.56 0.24,-1.65 0.19,-2.61 -0.15,-2.87 -0.34,-0.26 -0.87,-0.19 -0.91,-2.62 -0.03,-2.44 -1.01,-2.78 -1.62,-2.79 -0.61,-0.01 -1.35,0.16 -1.59,-0.58 -0.01,0.97 0.67,0.97 1.51,1.29 0.83,0.32 0.9,2.07 0.64,3.4 -0.25,1.33 0.84,1.68 0.78,3.77 -0.07,2.08 -2.32,3.34 -2.32,3.34 -1.37,0.91 -4.72,3.52 -4.98,7.12z"/>
    <path class="fil4" d="M181.46 110.18c-0.07,-0.5 -1.05,-1.49 -0.96,-3.09 0.09,-1.61 -1.67,-2.32 -0.96,-4.59 0.72,-2.27 2.05,-4.27 -1,-8.21 0.16,0.42 0.33,0.82 0.47,1.17 0.77,1.9 1.34,3.41 0.4,4.81 -0.93,1.4 -1.28,2.36 -0.84,3.61 0.44,1.26 0.39,1.97 0.18,2.83 -0.22,0.86 0.33,2.18 1.77,3.66 -0.39,0.34 -1.16,0.83 -2.77,1.12l0 0c2.88,0.36 3.78,-0.81 3.71,-1.31z"/>
    <path class="fil4" d="M191.94 115.7c1.14,3.88 2.89,7.28 4.84,7.08 1.95,-0.19 5.58,-4.07 6.54,-9.09 0.96,-5.02 -0.37,-4.57 -1.31,-5.93 -0.93,-1.37 -0.08,-5.22 -1.58,-8.21 -1.49,-2.99 -2.92,-3.51 -6,-3.87 -1.58,-0.19 -2.68,-0.38 -3.64,-0.72 -1.84,-0.03 -1.95,-0.2 -2.82,-0.84 -1.02,-0.76 -1.95,-1.22 -4.5,-0.62 1.15,-0.18 2.98,0.31 4.35,1.96 1.37,1.65 2.04,1.48 4.47,1.67 2.42,0.18 3.53,-0.15 4.15,0.3 0.62,0.45 2.51,2.29 1.96,4.47 -0.72,2.85 0.58,5.65 1.89,7.74 1.32,2.09 1.1,3.76 0.75,5.57 -0.34,1.8 -1.96,4.04 -3.42,5.62 -1.46,1.59 -2.01,-0.22 -2.68,-2.48 -0.68,-2.25 -1.3,-2.3 -2.22,-5.09 -0.61,-1.85 -3.17,-4.16 -5.3,-4.18 -0.17,0 -0.33,0 -0.49,0 2.45,1.19 3.88,2.73 5.01,6.62z"/>
    <path class="fil4" d="M207.95 107.22c2.04,-4.2 1.45,-7.13 0.87,-9.49 -0.57,-2.37 -0.78,-5.72 -1.9,-8.72 -1.12,-3.01 -1.56,-4.21 -4.45,-5.75 -2.9,-1.55 -3.93,-2.09 -6.86,-3.63 -2.93,-1.53 -3.04,-1.47 -5.97,-1.15 -0.17,0.05 -0.33,0.1 -0.48,0.15 -1.56,0.57 -1.57,1.82 -3.09,2.63 0.82,-0.11 1.15,-0.33 2.55,-1.36 1.39,-1.02 3.49,-1.2 5.01,-0.49 1.53,0.71 3.82,2 3.82,2 0,0 -0.93,0.69 -2.19,0.81 -1.26,0.12 -1.3,0.02 -2.91,0.74 -1.61,0.73 -2.83,1 -4.31,0.64 1.48,1.12 3.62,0.48 5,0.16 1.39,-0.31 2.39,0.06 4.73,-0.35 2.35,-0.42 2.42,-0.05 3.32,0.72 0.89,0.77 2.63,1.71 3.31,3.55 0.68,1.84 0.66,5.49 1.44,7.83 0.77,2.34 1.15,4.42 1,6.28 -0.16,1.85 -1.09,3.48 -2.66,6.08 0.23,1.86 1.73,3.56 3.77,-0.65z"/>
    <path class="fil4" d="M177.53 83.28c0.02,0.21 0.04,0.42 0.07,0.64 0,0 0,-0.25 -0.07,-0.64z"/>
    <path class="fil4" d="M172.62 91.04c-0.26,3.6 0.63,7.17 -0.36,12.17 -0.99,4.99 -1.82,7.7 0.42,9 1.33,0.77 2.63,0.18 3.37,-0.56 -1.62,-0.1 -2.35,-1.18 -2.47,-2.91 -0.14,-2 0.78,-3.11 1.71,-5.24 0.92,-2.14 1.43,-3.43 0.95,-5.81 -0.47,-2.38 -1.19,-3.76 -1.77,-5.28 -0.57,-1.53 -0.69,-2.24 0.23,-4.02 0.92,-1.78 2.59,-2.95 4.04,-3.85 1.45,-0.89 2.29,-1.91 2.52,-3.56 0.24,-1.65 0.19,-2.61 -0.15,-2.87 -0.34,-0.26 -0.87,-0.19 -0.91,-2.62 -0.03,-2.44 -1.01,-2.78 -1.62,-2.79 -0.61,-0.01 -1.35,0.16 -1.59,-0.58 -0.01,0.97 0.67,0.97 1.51,1.29 0.83,0.32 0.9,2.07 0.64,3.4 -0.25,1.33 0.84,1.68 0.78,3.77 -0.07,2.08 -2.32,3.34 -2.32,3.34 -1.37,0.91 -4.72,3.52 -4.98,7.12z"/>
    <path class="fil4" d="M181.46 110.18c-0.07,-0.5 -1.05,-1.49 -0.96,-3.09 0.09,-1.61 -1.67,-2.32 -0.96,-4.59 0.72,-2.27 2.05,-4.27 -1,-8.21 0.16,0.42 0.33,0.82 0.47,1.17 0.77,1.9 1.34,3.41 0.4,4.81 -0.93,1.4 -1.28,2.36 -0.84,3.61 0.44,1.26 0.39,1.97 0.18,2.83 -0.22,0.86 0.33,2.18 1.77,3.66 -0.39,0.34 -1.16,0.83 -2.77,1.12l0 0c2.88,0.36 3.78,-0.81 3.71,-1.31z"/>
    <path class="fil4" d="M191.94 115.7c1.14,3.88 2.89,7.28 4.84,7.08 1.95,-0.19 5.58,-4.07 6.54,-9.09 0.96,-5.02 -0.37,-4.57 -1.31,-5.93 -0.93,-1.37 -0.08,-5.22 -1.58,-8.21 -1.49,-2.99 -2.92,-3.51 -6,-3.87 -1.58,-0.19 -2.68,-0.38 -3.64,-0.72 -1.84,-0.03 -1.95,-0.2 -2.82,-0.84 -1.02,-0.76 -1.95,-1.22 -4.5,-0.62 1.15,-0.18 2.98,0.31 4.35,1.96 1.37,1.65 2.04,1.48 4.47,1.67 2.42,0.18 3.53,-0.15 4.15,0.3 0.62,0.45 2.51,2.29 1.96,4.47 -0.72,2.85 0.58,5.65 1.89,7.74 1.32,2.09 1.1,3.76 0.75,5.57 -0.34,1.8 -1.96,4.04 -3.42,5.62 -1.46,1.59 -2.01,-0.22 -2.68,-2.48 -0.68,-2.25 -1.3,-2.3 -2.22,-5.09 -0.61,-1.85 -3.17,-4.16 -5.3,-4.18 -0.17,0 -0.33,0 -0.49,0 2.45,1.19 3.88,2.73 5.01,6.62z"/>
    <path class="fil4" d="M207.95 107.22c2.04,-4.2 1.45,-7.13 0.87,-9.49 -0.57,-2.37 -0.78,-5.72 -1.9,-8.72 -1.12,-3.01 -1.56,-4.21 -4.45,-5.75 -2.9,-1.55 -3.93,-2.09 -6.86,-3.63 -2.93,-1.53 -3.04,-1.47 -5.97,-1.15 -0.17,0.05 -0.33,0.1 -0.48,0.15 -1.56,0.57 -1.57,1.82 -3.09,2.63 0.82,-0.11 1.15,-0.33 2.55,-1.36 1.39,-1.02 3.49,-1.2 5.01,-0.49 1.53,0.71 3.82,2 3.82,2 0,0 -0.93,0.69 -2.19,0.81 -1.26,0.12 -1.3,0.02 -2.91,0.74 -1.61,0.73 -2.83,1 -4.31,0.64 1.48,1.12 3.62,0.48 5,0.16 1.39,-0.31 2.39,0.06 4.73,-0.35 2.35,-0.42 2.42,-0.05 3.32,0.72 0.89,0.77 2.63,1.71 3.31,3.55 0.68,1.84 0.66,5.49 1.44,7.83 0.77,2.34 1.15,4.42 1,6.28 -0.16,1.85 -1.09,3.48 -2.66,6.08 0.23,1.86 1.73,3.56 3.77,-0.65z"/>
    <path class="fil4" d="M177.53 83.28c0.02,0.21 0.04,0.42 0.07,0.64 0,0 0,-0.25 -0.07,-0.64z"/>
    <path class="fil4" d="M156.17 81.88c0.65,-0.3 1.75,-0.48 2.34,-0.05 0.72,0.51 1.87,1.45 2.82,1.27 0.95,-0.18 1.72,-0.2 2.47,0.55 0.76,0.75 1.34,2.44 2.33,4.05 0.98,1.61 2.02,2.69 3.45,3.55 1.43,0.85 2.17,2.5 2.71,4.75 0.18,0.77 0.28,1.54 0.32,2.27 1.68,-5.12 -0.28,-7.09 -3.17,-9.08 -2.89,-1.98 -3.11,-3.35 -4.62,-5.48 -1.51,-2.14 -3.19,-0.66 -4.78,-1.6 -1.49,-0.88 -2.3,-1.09 -3.87,-0.23z"/>
    <path class="fil4" d="M217.51 109.03l0 0 -0.03 -0.05c-0.13,-0.41 0.59,-0.94 1.01,-1.84 0.42,-0.89 0.87,-1.85 2.56,-2.4 -1.5,0.2 -2.56,0.54 -3.13,1.61 -0.57,1.07 -1.45,0.99 -2.89,2.07 -1.14,0.21 -3.5,0.35 -3.5,0.35 0,0 -0.16,0.46 -0.32,1.1 1.91,-0.7 4.89,-1.07 6.3,-0.84z"/>
    <path class="fil5" d="M179.42 73.61c0.23,0.76 0.19,2.9 0.72,4.05 0.54,1.15 1.22,2.51 0.08,4.72 -1.15,2.21 -3.92,2.59 -6.05,5.35 -2.14,2.75 -0.09,6.78 0.35,9.85 0.44,3.07 -0.95,3.41 -1.96,7.67 -1.01,4.26 0.81,6.18 2.99,6.33l0 0c-1.27,-0.27 -1.86,-1.3 -1.97,-2.84 -0.14,-2 0.78,-3.11 1.71,-5.24 0.92,-2.14 1.43,-3.43 0.95,-5.81 -0.47,-2.38 -1.19,-3.76 -1.77,-5.28 -0.57,-1.53 -0.69,-2.24 0.23,-4.02 0.92,-1.78 2.59,-2.95 4.04,-3.85 1.45,-0.89 2.29,-1.91 2.52,-3.56 0.24,-1.65 0.19,-2.61 -0.15,-2.87 -0.34,-0.26 -0.87,-0.19 -0.91,-2.62 -0.03,-2.44 -1.01,-2.78 -1.62,-2.79 -0.61,-0.01 -1.35,0.16 -1.59,-0.58 0.24,1.24 2.2,0.72 2.43,1.49z"/>
    <path class="fil5" d="M215.53 109.77c-3.21,0.2 -4.81,1.4 -6.34,3.47 -1.53,2.07 -2.04,4.62 -3,8.45 -0.96,3.83 -0.79,4.18 0.67,4.99 0,0 0.3,-2.38 0.72,-3.79 0.42,-1.41 1.56,-3.06 1.88,-5.78 0.32,-2.71 0.75,-3.18 1.59,-4.1 0.85,-0.93 2.14,-1.59 4.63,-1.67 2.49,-0.08 2.65,-0.99 4.55,-0.94 1.9,0.05 2.41,-0.53 2.41,-0.53 0,0 0.04,-0.4 -0.34,-0.99 -1.91,0.96 -3.83,0.72 -6.77,0.89z"/>
    <path class="fil5" d="M221.05 89.88c-0.92,1.71 -2.78,3.32 -3.71,4.56 -0.93,1.25 -1.7,2.32 -1.7,2.32 0,0 -0.19,2.82 -1.32,5.6 -1.13,2.77 -2.79,6.41 -2.79,6.41 -0.89,-0.04 -1.02,-1.43 0.06,-4.12 1.09,-2.69 2.29,-5.54 2.54,-9.01 0.25,-3.47 0.42,-5.48 0.51,-8.44 0.08,-2.97 0.26,-5.44 -0.09,-8.26 -0.36,-2.83 0.25,-6.12 1.74,-8.33 1.49,-2.21 3.12,-3.91 7.07,-4.16 -2.71,0.36 -3.5,0.9 -5.26,2.82 -1.76,1.92 -2.15,3.06 -2.48,4.99 -0.32,1.93 -0.81,3.22 -0.45,4.95 0.36,1.73 0.46,2.66 0.46,2.66 0,0 2.22,-2.06 3.34,-3.83 1.11,-1.78 0.73,-2.7 2.16,-4.44 1.43,-1.75 0.78,-2.2 2.6,-4.4 -1.04,1.97 -0.49,2.61 -1.71,4.58 -1.21,1.97 -1.24,4.04 -2.61,6.41 -1.37,2.37 -3.56,4.48 -3.56,4.48 0,0 0.15,1.88 0.14,3.49 -0.02,1.61 -0.43,4 -0.32,4.88 2.15,-1.51 3.99,-3.93 3.99,-3.93 1.82,-2.58 3.94,-4.93 5.83,-5.87 1.89,-0.93 4.66,-4.22 5.13,-6.35 0.47,-2.12 1.58,-5.07 3.92,-6.99 -1.2,1.37 -2.39,3.77 -2.73,6.83 -0.34,3.07 -2.88,6.03 -7.11,8.66 3.23,-0.81 4.29,-0.03 6.7,-0.63 2.41,-0.6 4.1,-3.24 6.41,-4.03 -1.47,0.88 -2.32,2.63 -4.32,4.21 -2,1.57 -3.11,1.6 -6.47,1.62 -3.37,0.03 -5.26,1.99 -5.97,3.32z"/>
    <path class="fil4" d="M221.13 73.6c-1.43,1.74 -1.05,2.66 -2.16,4.44 -1.12,1.77 -3.34,3.83 -3.34,3.83l0.13 1.03c0,0 2.87,-1.43 4.52,-5.97 1.65,-4.55 1.94,-3.56 2.29,-5.5 0.16,-0.68 1.16,-2.23 1.16,-2.23 -1.82,2.2 -1.17,2.65 -2.6,4.4z"/>
    <path class="fil4" d="M233.49 84.94c2,-1.58 2.85,-3.33 4.32,-4.21 -2.31,0.79 -4,3.43 -6.41,4.03 -2.41,0.6 -3.47,-0.18 -6.7,0.63 4.23,-2.63 6.77,-5.59 7.11,-8.66 0.34,-3.06 1.53,-5.46 2.73,-6.83 -2.34,1.92 -3.45,4.87 -3.92,6.99 -0.47,2.13 -3.24,5.42 -5.13,6.35 -1.89,0.94 -4.01,3.29 -5.83,5.87 0,0 -1.84,2.42 -3.99,3.93l-0.09 1.72c1.32,-1.14 3.86,-3.65 4.82,-5.25 1.12,-1.55 2.63,-2.99 5.32,-2.84l0.01 0.01c0.4,-0.07 0.83,-0.12 1.29,-0.12 3.36,-0.02 4.47,-0.05 6.47,-1.62z"/>
    <path class="fil5" d="M202.76 110.75c-0.81,-2.71 -2.28,-2.28 -2.77,-7.13 -0.48,-4.86 -1.56,-6.85 -4.77,-7.17 -3.22,-0.31 -5.46,0.37 -6.64,-1.18 -1.14,-1.49 -3.28,-2.15 -4.94,-1.81 -0.06,0.02 -0.11,0.03 -0.17,0.04 1.15,-0.18 2.98,0.31 4.35,1.96 1.37,1.65 2.04,1.48 4.47,1.67 2.42,0.18 3.53,-0.15 4.15,0.3 0.62,0.45 2.51,2.29 1.96,4.47 -0.72,2.85 0.58,5.65 1.89,7.74 1.32,2.09 1.1,3.76 0.75,5.57 -0.28,1.49 -1.44,3.28 -2.66,4.75 2.51,-1.53 5.18,-6.51 4.38,-9.21z"/>
    <path class="fil5" d="M207.98 103.24c1.79,-4.57 -0.81,-6.05 -1.41,-10.45 -0.59,-4.4 -1,-6.74 -4.31,-8.89 -3.3,-2.15 -4.06,-2.07 -4.81,-2.49 0,0 -0.93,0.69 -2.19,0.81 -1.26,0.12 -1.3,0.02 -2.91,0.74 -1.61,0.73 -2.83,1 -4.31,0.64 1.48,1.12 3.62,0.48 5,0.16 1.39,-0.31 2.39,0.06 4.73,-0.35 2.35,-0.42 2.42,-0.05 3.32,0.72 0.89,0.77 2.63,1.71 3.31,3.55 0.68,1.84 0.66,5.49 1.44,7.83 0.77,2.34 1.15,4.42 1,6.28 -0.16,1.85 -1.09,3.48 -2.66,6.08 0.88,1.36 2.01,-0.06 3.8,-4.63z"/>
    <path class="fil4" d="M177.53 83.28c0.02,0.21 0.04,0.42 0.07,0.64 0,0 0,-0.25 -0.07,-0.64z"/>
    <path class="fil4" d="M172.62 91.04c-0.26,3.6 0.63,7.17 -0.36,12.17 -0.99,4.99 -1.82,7.7 0.42,9 1.33,0.77 2.63,0.18 3.37,-0.56 -1.62,-0.1 -2.35,-1.18 -2.47,-2.91 -0.14,-2 0.78,-3.11 1.71,-5.24 0.92,-2.14 1.43,-3.43 0.95,-5.81 -0.47,-2.38 -1.19,-3.76 -1.77,-5.28 -0.57,-1.53 -0.69,-2.24 0.23,-4.02 0.92,-1.78 2.59,-2.95 4.04,-3.85 1.45,-0.89 2.29,-1.91 2.52,-3.56 0.24,-1.65 0.19,-2.61 -0.15,-2.87 -0.34,-0.26 -0.87,-0.19 -0.91,-2.62 -0.03,-2.44 -1.01,-2.78 -1.62,-2.79 -0.61,-0.01 -1.35,0.16 -1.59,-0.58 -0.01,0.97 0.67,0.97 1.51,1.29 0.83,0.32 0.9,2.07 0.64,3.4 -0.25,1.33 0.84,1.68 0.78,3.77 -0.07,2.08 -2.32,3.34 -2.32,3.34 -1.37,0.91 -4.72,3.52 -4.98,7.12z"/>
    <path class="fil4" d="M181.46 110.18c-0.07,-0.5 -1.05,-1.49 -0.96,-3.09 0.09,-1.61 -1.67,-2.32 -0.96,-4.59 0.72,-2.27 2.05,-4.27 -1,-8.21 0.16,0.42 0.33,0.82 0.47,1.17 0.77,1.9 1.34,3.41 0.4,4.81 -0.93,1.4 -1.28,2.36 -0.84,3.61 0.44,1.26 0.39,1.97 0.18,2.83 -0.22,0.86 0.33,2.18 1.77,3.66 -0.39,0.34 -1.16,0.83 -2.77,1.12l0 0c2.88,0.36 3.78,-0.81 3.71,-1.31z"/>
    <path class="fil4" d="M191.94 115.7c1.14,3.88 2.89,7.28 4.84,7.08 1.95,-0.19 5.58,-4.07 6.54,-9.09 0.96,-5.02 -0.37,-4.57 -1.31,-5.93 -0.93,-1.37 -0.08,-5.22 -1.58,-8.21 -1.49,-2.99 -2.92,-3.51 -6,-3.87 -1.58,-0.19 -2.68,-0.38 -3.64,-0.72 -1.84,-0.03 -1.95,-0.2 -2.82,-0.84 -1.02,-0.76 -1.95,-1.22 -4.5,-0.62 1.15,-0.18 2.98,0.31 4.35,1.96 1.37,1.65 2.04,1.48 4.47,1.67 2.42,0.18 3.53,-0.15 4.15,0.3 0.62,0.45 2.51,2.29 1.96,4.47 -0.72,2.85 0.58,5.65 1.89,7.74 1.32,2.09 1.1,3.76 0.75,5.57 -0.34,1.8 -1.96,4.04 -3.42,5.62 -1.46,1.59 -2.01,-0.22 -2.68,-2.48 -0.68,-2.25 -1.3,-2.3 -2.22,-5.09 -0.61,-1.85 -3.17,-4.16 -5.3,-4.18 -0.17,0 -0.33,0 -0.49,0 2.45,1.19 3.88,2.73 5.01,6.62z"/>
    <path class="fil4" d="M207.95 107.22c2.04,-4.2 1.45,-7.13 0.87,-9.49 -0.57,-2.37 -0.78,-5.72 -1.9,-8.72 -1.12,-3.01 -1.56,-4.21 -4.45,-5.75 -2.9,-1.55 -3.93,-2.09 -6.86,-3.63 -2.93,-1.53 -3.04,-1.47 -5.97,-1.15 -0.17,0.05 -0.33,0.1 -0.48,0.15 -1.56,0.57 -1.57,1.82 -3.09,2.63 0.82,-0.11 1.15,-0.33 2.55,-1.36 1.39,-1.02 3.49,-1.2 5.01,-0.49 1.53,0.71 3.82,2 3.82,2 0,0 -0.93,0.69 -2.19,0.81 -1.26,0.12 -1.3,0.02 -2.91,0.74 -1.61,0.73 -2.83,1 -4.31,0.64 1.48,1.12 3.62,0.48 5,0.16 1.39,-0.31 2.39,0.06 4.73,-0.35 2.35,-0.42 2.42,-0.05 3.32,0.72 0.89,0.77 2.63,1.71 3.31,3.55 0.68,1.84 0.66,5.49 1.44,7.83 0.77,2.34 1.15,4.42 1,6.28 -0.16,1.85 -1.09,3.48 -2.66,6.08 0.23,1.86 1.73,3.56 3.77,-0.65z"/>
    <path class="fil6" d="M222.08 108.57c-0.36,0.57 -0.05,1.19 0.56,1.3 0.18,-0.87 -0.56,-1.3 -0.56,-1.3z"/>
    <path class="fil5" d="M242.51 131.57l0 0c-0.8,-0.29 1.44,-2.89 4.29,-3.08 2.84,-0.19 4.28,-0.69 5.94,-1.8 -3.29,1.58 -5.55,0.82 -7.82,1.47 -2.27,0.64 -3.8,2.6 -5.04,3.28 -0.92,-0.08 -1.72,-0.19 -2.2,-0.42 -1.43,-0.68 -2.95,-3.16 -2.1,-3.44l0 0c0.82,-0.05 1.78,-0.15 2.94,-0.3 0.68,-0.08 1.29,-0.21 1.85,-0.37 -4.57,0.98 -9.34,-0.58 -12.36,-2.29 -3.02,-1.71 -5,-1.78 -7.68,-1.27 -2.69,0.51 -5.08,1.25 -6.74,3.08 -2.18,2.39 -3.79,1.36 -6.09,3.45 -2.31,2.09 -0.83,6.52 0.07,11.91 0.9,5.38 1.66,4.96 5.15,6.27 -1.52,-1.01 -2.02,-1.89 -2.81,-4.25 -0.94,-2.8 -1.58,-7.15 -1.92,-9.72 -0.35,-2.58 0.46,-3.94 1.58,-4.34 1.13,-0.41 3.44,-0.5 4.76,-1.84 0.58,-0.58 1.63,-1.97 2.31,-2.34 1.17,-0.63 3.56,-0.35 5.25,0.97 2.67,2.09 1.62,3.63 2.4,8.13 0.77,4.5 6.69,3.89 8.77,3.88 2.08,-0.02 3.13,1.46 5.82,1.21 2.68,-0.24 4,-0.53 6.05,0.4 -2.35,-2.06 -5.36,-1.39 -7.76,-1.86 -1.9,-0.37 -2.6,-1.39 -4.1,-1.6 -1.5,-0.22 -2.98,0.32 -4.56,-0.49 -1.58,-0.8 -1.7,-2.26 -1.73,-5.01 -0.03,-2.75 -1.09,-5.55 -3.7,-7.05 1.21,0.03 4.09,0.96 6.44,2.19 1,0.52 1.79,0.89 2.78,1.1l-0.01 0c1.16,1.03 1.1,2.36 2.29,3.81 1.19,1.44 4.64,1.39 8.01,1.07 3.38,-0.32 4.61,1.57 8.56,0.59 -2.76,0.01 -3.85,-0.68 -5.85,-1.09 -0.72,-0.15 -1.73,-0.2 -2.79,-0.25z"/>
    <path class="fil5" d="M169.55 111.11c-0.17,-1.99 1.91,-4.54 2.16,-6.3 0.25,-1.77 -0.34,-3.67 -2.5,-4.91 -2.15,-1.24 -5.47,-0.23 -7.17,-2.4 -1.69,-2.17 -3.4,-3.21 -4.96,-2.87 2.44,0.06 3.15,2.15 4.64,3.64 1.49,1.49 3.61,1.69 5.24,1.79 1.62,0.1 2.12,0.4 2.56,1.17 0.43,0.77 1.04,0.91 1.34,1.92 0.3,1.02 0.25,0.8 -1.92,3.48 -2.17,2.68 -0.95,5.7 1.44,9.01 0.44,-0.63 -0.67,-2.55 -0.83,-4.53z"/>
    <path class="fil5" d="M185.83 135.69c-1.25,-2.32 -1.59,-3.41 -1.5,-4.48 0.08,-1.06 0.57,-0.75 -0.27,-2.79 -0.84,-2.04 -1.12,-3.55 -0.28,-5.17 0.83,-1.62 0.33,-2.31 -0.16,-4.55 -0.49,-2.23 -1.57,-3.03 -3.46,-2.78 -4.5,0.61 -5.85,1.43 -10.15,0.77 -3.31,-0.51 -4.01,-3.6 -6.71,-6.03 -2.7,-2.44 -6.38,-1.5 -9.05,-4.53l-0.02 0.03c0.98,1.11 1.85,2.19 4.25,2.82 2.48,0.66 3.38,0.69 5.14,3.53 0.32,0.51 0.63,0.99 0.95,1.44 0,0 -1.63,0.52 -5.07,-0.58 -2.23,-0.64 -3.62,0.06 -3.62,0.06 0,0 2.09,-0.28 4.14,0.89 2.79,1.64 4.62,0.93 6.49,2l0 0c0.75,0.73 1.51,1.22 2.29,1.45 1.79,0.53 2.72,1.14 5.61,0.49 2.23,-0.49 3.31,-0.16 4.75,-0.1 1.44,0.06 1.82,-0.8 2.24,1.41 0.41,2.21 0.46,2.88 0.3,4.71 -0.17,1.84 -0.44,1.8 -2.5,3.92 -2.05,2.13 -2.11,2.79 -3.45,5.21 -1.04,1.9 -2.79,3.92 -5.28,5.35 2.29,-0.37 2.6,-1.02 3.09,-0.7 0.71,0.46 -0.05,1.89 -0.47,2.93 -0.2,0.48 -0.77,1.65 -1.57,2.93 -1.17,0.43 -3.63,-0.7 -5.38,-0.64 -1.76,0.06 -2.89,0.42 -4,1.37 -1.1,0.95 -2.29,1.67 -2.87,1.82 2.39,-0.52 3.52,-1.28 5.02,-1.73 1.5,-0.45 1.82,-0.32 2.67,0.22 0.85,0.54 3.16,0.4 2.56,1.59 -0.5,0.53 -1.03,0.99 -1.58,1.32 -2.59,1.56 -5.31,2.28 -6.89,4.17 0,0 1.06,-0.82 3.55,-1.38 2.49,-0.56 5.59,-1.62 7.63,-4.42 2.04,-2.8 3.82,-6.4 4.24,-9.44 0.42,-3.04 1.95,-6.26 3.27,-7.12 1.32,-0.86 2.09,-1.3 2.54,0.37 0.45,1.68 1.24,5.27 1.53,7.12 0.28,1.85 0.07,4.52 0.33,6.11 0.25,1.59 0.48,3.63 -1.26,6.09 -1.74,2.46 -3.21,3.38 -5.4,4.43 -2.2,1.05 -2.32,2.67 -5.11,3.87 -2.78,1.19 -4.29,1.77 -5.75,2.95 3.01,-1.43 3.36,-1.36 4.93,-1.5 1.57,-0.13 3.87,-0.68 6.31,-2.19 1.81,-1.13 3,-0.95 4.57,-1.08 1.57,-0.14 2.02,-0.29 2.54,0.34 -0.13,-0.93 -1.44,-0.6 -1.99,-1.32 -0.55,-0.72 -0.21,-1.26 0.67,-2.05 0.87,-0.8 0.2,-0.75 2.06,-1.53 1.85,-0.77 1.89,-2.44 1.51,-2.77 -0.38,-0.32 -0.97,0.4 -1.6,0.71 -0.64,0.31 -1.09,-0.23 -0.33,-1.62 0.75,-1.38 1.31,-1.15 0.87,-2.23 -0.45,-1.07 0.17,-0.93 0.74,-2.62 0.56,-1.7 0.19,-4.75 -1.07,-7.07z"/>
    <path class="fil7" d="M159.8 70.9c-0.47,-0.23 -0.88,-0.42 -1.2,-0.58 -1.45,-0.7 -2.45,0 -2.84,0.49l0.15 1.41c0.7,2.1 1.9,5.68 6.23,8.15 0.61,0.24 1.85,-0.46 1.85,-0.46 0,0 0.52,0.42 0.95,0.51 0.44,0.1 1.23,-0.5 1.23,-0.5 0,0 4.2,-2.49 -6.37,-9.02z"/>
    <path class="fil8" d="M155.76 70.81c0,0 0.8,0.75 0.99,1.19 -0.79,0.56 -4.34,0 -4.34,0 1.16,-0.81 3.35,-1.19 3.35,-1.19z"/>
    <path class="fil7" d="M152.41 72l0 0c0,0 0.08,0.01 0.22,0.03 0.72,-0.07 3.06,-0.3 3.86,-0.43l-0.08 -0.1c-0.9,0.14 -3.38,0.38 -3.91,0.43l-0.09 0.07z"/>
    <path class="fil7" d="M154.67 71.41c0,0.07 -0.05,0.13 -0.12,0.13 -0.07,0 -0.13,-0.06 -0.13,-0.13 0,-0.07 0.06,-0.12 0.13,-0.12 0.07,0 0.12,0.05 0.12,0.12z"/>
    <path class="fil9" d="M157.06 70.77c-0.15,0 -0.27,0.12 -0.27,0.27 0,0.15 0.12,0.27 0.27,0.27 0.15,0 0.27,-0.12 0.27,-0.27 0,-0.15 -0.12,-0.27 -0.27,-0.27zm0 0.65c-0.21,0 -0.38,-0.17 -0.38,-0.38 0,-0.2 0.17,-0.37 0.38,-0.37 0.21,0 0.38,0.17 0.38,0.37 0,0.21 -0.17,0.38 -0.38,0.38z"/>
    <path class="fil8" d="M159.8 70.9c1.65,0.81 4,2.04 5.58,3.35 2.01,1.68 6.43,6.95 6.43,6.95 0,0 -3.3,-0.25 -5.86,-1.37 -2.57,-1.12 -5.44,-2.01 -6.47,-5 -0.66,-1.93 -0.14,-3.25 0.32,-3.93z"/>
    <path class="fil7" d="M164.68 82.21l-0.7 0 1.17 -1.86 -0.27 -0.17 -1.23 1.97 -0.96 -0.5 -0.68 0.17c-0.04,0.01 -0.07,0.06 -0.06,0.1 0.01,0.05 0.06,0.08 0.1,0.07l0.62 -0.15 0.67 0.35 -1.04 -0.05 -0.6 0.39c-0.04,0.03 -0.05,0.08 -0.02,0.12l0.07 0.04 0.05 -0.02 0.55 -0.36 0.89 0.05 -0.96 0.3 -0.27 0.37c-0.02,0.04 -0.01,0.1 0.03,0.12l0.05 0.02 0.07 -0.04 0.23 -0.32 1.36 -0.43 0.87 0 0.23 0.16c0.04,0.03 0.1,0.02 0.13,-0.02 0.02,-0.04 0.01,-0.09 -0.03,-0.12l-0.27 -0.19z"/>
    <path class="fil7" d="M163.34 82.24l-0.28 -0.19 -0.79 0.01 0.42 -2.32 -0.3 -0.16 -0.46 2.36 -0.85 -0.45 -0.68 0.17c-0.05,0.01 -0.08,0.06 -0.06,0.1 0.01,0.05 0.05,0.08 0.1,0.07l0.62 -0.15 0.67 0.35 -1.04 -0.05 -0.6 0.39c-0.04,0.03 -0.05,0.08 -0.02,0.12l0.07 0.04 0.05 -0.01 0.54 -0.36 0.9 0.04 -0.97 0.3 -0.26 0.37c-0.03,0.04 -0.02,0.1 0.02,0.13l0.05 0.01 0.08 -0.03 0.22 -0.33 1.37 -0.42 0.87 0 0.23 0.15c0.04,0.03 0.1,0.02 0.12,-0.02 0.03,-0.04 0.02,-0.09 -0.02,-0.12z"/>
    <path class="fil10" d="M235.87 148.92c0,0 0,0 0,0 0,0 0,0 0,0zm0 -0.01c-0.02,-1.06 -0.07,-3.01 -0.08,-3.33 0.01,0.32 0.06,2.27 0.08,3.33z"/>
    <path class="fil11" d="M235.79 145.58c0,-0.03 0,-0.04 0,-0.04 0,-0.01 0,-0.02 0,-0.03 0,0.01 0,0.02 0,0.03 0,0 0,0.01 0,0.04z"/>
    <path class="fil12" d="M237.75 148.71c0,0 0,0 0,0 0,0 0,0 0,0zm0 0c0,-0.03 0,-0.06 0.01,-0.09 0.03,-0.36 0.04,-0.83 0.04,-1.29 0,0.46 -0.01,0.93 -0.04,1.29 -0.01,0.03 -0.01,0.06 -0.01,0.09z"/>
    <path class="fil7" d="M189.03 131.2c0,0 3.64,0.68 4.67,1.33 -0.99,1.2 -3.46,0.82 -4.67,-1.33z"/>
    <path class="fil5" d="M223.93 131.32c-0.19,1.12 -2.38,1.42 -4.2,3.28 -1.83,1.87 -2.49,3.96 -1.92,6.53 0.57,2.56 3.11,1.77 4.72,2.49 1.6,0.73 2.55,0.15 3.02,-0.25 -1.09,0.33 -1.7,0.3 -3.12,-0.71 -1.42,-1.02 -3.25,-0.36 -3.33,-2.35 -0.08,-1.99 0.82,-4.53 2.72,-5.33 1.89,-0.8 2.66,0.46 2.66,0.46 0,0 1.03,-3.36 -0.55,-4.12z"/>
    <path class="fil5" d="M213.42 127.99c2.23,-0.27 2.53,0.4 3.84,0.66 1.31,0.25 2.03,-0.33 3.01,0.35 0.99,0.69 1.48,0.93 1.48,0.93 0,0 -0.76,-0.22 -1.68,-0.74 -0.76,-0.53 -1.78,0.69 -3.58,0.02 -1.8,-0.68 -2.33,-0.48 -3.92,-0.31 0,0 -0.33,-0.91 0.85,-0.91z"/>
    <polygon class="fil5" points="191.76,168.62 191.76,168.54 191.76,168.54 "/>
    <path class="fil5" d="M210.17 155.23c-0.09,-1.35 -0.83,-2.88 -2.73,-3.61 -1.91,-0.72 -3.79,0.17 -3.69,1.54 0.06,-0.12 0.21,-0.24 0.5,-0.34 1.31,-0.49 2.4,-0.18 4.05,1.05 1.65,1.23 1.04,2.21 2.11,2.8 1.08,0.59 1.75,1.44 1.75,1.44 -0.62,-1.34 -1.9,-1.54 -1.99,-2.88z"/>
    <path class="fil5" d="M219.13 154.26c-2.23,-1.04 -4.27,-1.9 -5.92,-3.01 -1.65,-1.1 -2.57,-0.36 -2.76,0.6 0.68,-0.49 1.7,0.46 3.52,1.67 1.83,1.2 3.08,1.44 5.27,1.94 2.19,0.49 2.99,1.33 4.64,2.17 -2.48,-1.69 -2.51,-2.33 -4.75,-3.37z"/>
    <path class="fil2" d="M185.28 125.37c0.66,-0.07 1.24,1.15 1.32,2.67 0.07,1.52 1.09,2.2 0.88,3.79 -0.2,1.59 -0.02,2.04 -0.61,2.06 -0.58,0.02 -1.24,-0.55 -1.3,-2.09 -0.05,-1.54 0.34,-2.25 0.02,-3.19 -0.33,-0.94 -1.04,-3.16 -0.31,-3.24z"/>
    <path class="fil4" d="M200.31 135.11c0.45,-0.15 0.71,0.81 0.69,1.97 -0.02,1.16 -0.61,3.33 -0.51,4.22 0.09,0.9 0.77,4 -0.08,3.97 -0.85,-0.04 -0.37,-1.14 -0.91,-1.44 -0.55,-0.31 -1.67,-0.41 -1.29,-1.89 0.38,-1.49 0.45,-1.62 1.38,-2.25 0.92,-0.63 0.74,-2.01 0.46,-2.96 -0.28,-0.94 -0.2,-1.45 0.26,-1.62z"/>
    <path class="fil2" d="M201.31 153.77c-0.25,-1.09 -0.39,-2.56 -0.32,-3.65 0.07,-1.09 0.16,-2.24 -0.64,-3.11 -0.8,-0.87 -0.78,-1.66 -1.71,-1.71 -0.94,-0.05 -0.99,-0.77 -1.44,-2.65 -0.46,-1.87 -0.29,-2.93 0.53,-4.25 0.83,-1.31 1.16,-1.48 1.02,-2.75 -0.15,-1.26 0.4,-2.59 0.95,-3.94 0.55,-1.36 0.44,-2.34 -0.18,-2.48 -0.52,-0.11 -0.5,0.54 -0.49,1.57 0,1.04 -0.23,1.99 -0.6,2.46 -0.37,0.46 -1.5,1.2 -1.52,2.03 -0.02,0.84 0.09,1.35 -0.82,1.76 -0.91,0.4 -0.91,1.38 -1.49,4.03 -0.59,2.64 -0.35,4.05 -0.51,5.39 -0.15,1.34 -1.41,1.72 -1.61,3.4 -0.21,1.69 0.8,2.35 1.13,3.53 0.33,1.18 0.14,2.4 0.48,3.67l0 0.01c0.04,0.16 0.08,0.32 0.12,0.52 0.48,2.27 0.13,3.6 -0.67,5.08 -0.79,1.48 -1.85,2.57 -1.78,5.94 -0.01,-0.34 0.05,-0.71 0.18,-1.1l0 0c0.18,-0.84 0.93,-2.44 2.27,-3.66 1.35,-1.22 1.9,-2.57 1.75,-6.31 0.39,-3.25 0.32,-4.51 -0.26,-6.22 -0.58,-1.7 0.08,-2.55 -0.01,-4.02 -0.1,-1.47 0.85,-1.5 1.43,0.01 0.58,1.5 1.92,0.65 2.16,3.78 0.23,3.14 0.97,3.64 0.97,3.64 0,0 1.16,1.28 3.06,1.44 -1.66,-0.79 -1.75,-1.31 -2,-2.41z"/>
    <path class="fil4" d="M205.76 158.13c-2.29,-2.31 -2.67,-1.88 -4.69,-2.97 -2.02,-1.08 -3.5,-1.73 -4.53,0.61 -1.04,2.35 -0.69,4.17 -1.67,6.47 -0.9,2.1 -2.26,2.09 -2.93,5.28 0.43,-1.34 1.63,-2.85 3.18,-4.11 2.01,-1.62 2.58,-4.75 2.79,-6.25 0.2,-1.51 0.07,-2.13 1.03,-1.47 0.96,0.66 2.8,0.54 4.28,1.82 1.47,1.28 2.02,2.12 3.94,2.88 1.91,0.76 2.94,1.21 3.43,2.75 -0.56,-2.36 -2.55,-2.71 -4.83,-5.01z"/>
    <path class="fil5" d="M208.71 154.23c1.13,1.06 0.73,1.9 1.7,2.44 1.08,0.59 1.75,1.44 1.75,1.44 0,0 -0.09,-0.52 -0.8,-1.41 -0.71,-0.9 -0.76,-0.51 -0.82,-2.13 -0.07,-1.62 -0.33,-2.44 -0.09,-2.72 0.68,-0.49 1.7,0.46 3.52,1.67 0.79,0.52 1.47,0.85 2.17,1.11 0.03,-1.04 -0.19,-1.85 -0.19,-1.85 0,0 -1.65,-0.86 -2.54,-1.87 -0.9,-1 -1.46,-1.28 -3.25,-1.27 -1.8,0.02 -1.63,-0.96 -2.03,-2.59 -0.4,-1.64 -0.79,-1.01 -1.56,-1.71 -0.77,-0.7 -1.09,-3.37 -1.41,-4.82 -0.31,-1.44 -0.53,-2.67 -1.18,-2.62 -0.26,0.01 -0.46,0.08 -0.56,0.35 0,0.52 0,1.02 0.02,1.52 0.06,0.43 0.15,0.96 0.29,1.63 0.6,2.83 0.04,3.61 0.59,5.15 0.79,2.21 2.02,4.41 0.69,4.99 1.69,0.43 3.43,2.03 3.7,2.69z"/>
    <path class="fil7" d="M202.48 134.55c-0.04,0.01 -0.08,0 -0.12,-0.01 -4,-1.56 -10.24,-0.47 -12.04,1.05 -0.11,0.09 -0.27,0.08 -0.36,-0.03 -0.09,-0.11 -0.08,-0.27 0.03,-0.36 1.93,-1.63 8.32,-2.78 12.55,-1.13 0.13,0.05 0.19,0.19 0.14,0.33 -0.03,0.08 -0.11,0.14 -0.2,0.15z"/>
    <path class="fil7" d="M198.55 131.72l4.67 -2.1c-0.12,0.2 -0.35,2.15 -2,2.56 -1.86,0.46 -2.67,-0.46 -2.67,-0.46z"/>
   </g>
  </g>
 </g>
</svg>
