<?xml version="1.0" encoding="UTF-8"?>
<!DOCTYPE svg PUBLIC "-//W3C//DTD SVG 1.1//EN" "http://www.w3.org/Graphics/SVG/1.1/DTD/svg11.dtd">
<!-- Creator: CorelDRAW -->
<svg xmlns="http://www.w3.org/2000/svg" xml:space="preserve" width="1249px" height="900px" version="1.1" style="shape-rendering:geometricPrecision; text-rendering:geometricPrecision; image-rendering:optimizeQuality; fill-rule:evenodd; clip-rule:evenodd"
viewBox="0 0 260.52 187.78"
 xmlns:xlink="http://www.w3.org/1999/xlink"
 xmlns:xodm="http://www.corel.com/coreldraw/odm/2003">
 <defs>
  <style type="text/css">
   <![CDATA[
    .fil2 {fill:none}
    .fil0 {fill:#004247;fill-rule:nonzero}
    .fil3 {fill:#09606A;fill-rule:nonzero}
    .fil1 {fill:#FFA700;fill-rule:nonzero}
   ]]>
  </style>
 </defs>
 <g id="Слой_x0020_1">
  <metadata id="CorelCorpID_0Corel-Layer"/>
  <g id="_1596742861392">
   <g>
    <g>
     <path class="fil0" d="M176.61 143.61c-9.76,-1.53 -19.99,-1.76 -30.21,-1.15l0.44 -4.19c0.18,0.01 0.35,-0.12 0.37,-0.31l0 0c0.02,-0.19 -0.12,-0.36 -0.31,-0.38l-1.05 -7.62 0.43 -4.17 0.01 0 -1.03 -5.42 0.17 -1.67 -0.05 -0.06 -0.07 0.05 -0.17 1.67 -2.12 5.09 -0.44 4.17 -2.61 7.24c0,0 -0.21,-0.05 -0.23,0.15 -0.02,0.21 0.13,0.22 0.13,0.22l-0.76 4.64 0.97 -21.85 0.01 0c0.27,0 0.5,-0.23 0.5,-0.5l0 -0.01c0,-0.28 -0.23,-0.5 -0.5,-0.5l-0.01 0 0.65 -5.17 0.01 0c0.27,0 0.5,-0.22 0.5,-0.5l0 -0.01c0,-0.27 -0.23,-0.49 -0.5,-0.49l-0.01 0 0.33 -4.66 0 0 -3.71 -9.34 0 -1.69 -0.06 -0.06 -0.06 0.06 0 1.69 -1.98 3.41 -2.64 -7.3 0 -1.61 -0.06 -0.06 -0.06 0.06 0 1.49 -5.06 0 0 -1.49 -0.06 -0.06 -0.06 0.06 0 1.65 -2.63 7.27 0 0 -1.98 -3.42 0 -1.69 -0.06 -0.06 -0.06 0.06 0 1.69 -3.71 9.34 0 0 0.32 4.66c-0.27,0 -0.49,0.22 -0.49,0.49l0 0.01c0,0.28 0.22,0.5 0.49,0.5l0.66 5.17c-0.28,0 -0.5,0.22 -0.5,0.5l0 0.01c0,0.27 0.22,0.5 0.5,0.5l0.93 25.56 -0.41 0.08 -1.15 -9.14c0.18,-0.03 0.31,-0.2 0.29,-0.39l0 -0.01c-0.03,-0.18 -0.2,-0.31 -0.39,-0.29l-1.14 -8.43 -7.24 -15.97 -0.23 -1.67 -0.07 -0.05 -0.05 0.07 0.22 1.67 -2.74 17.32 1.14 8.43c-0.19,0.02 -0.32,0.2 -0.3,0.38l0 0.01c0.03,0.19 0.2,0.32 0.39,0.29l1.23 9.74c-18.37,3.93 -34.57,9.06 -45.2,12.27 -24.62,7.43 -65.13,3.77 -65.13,3.77l0 24.12 260.52 0c0,0 0,-25.94 0,-38.81 -12.05,1.24 -43.53,0.93 -83.91,-5.36z"/>
     <path class="fil1" d="M144.51 126.93l0.01 0c0.22,0.02 0.39,0.22 0.36,0.45l-0.12 1.14 -0.81 -0.09 0.11 -1.14c0.03,-0.22 0.23,-0.38 0.45,-0.36zm-33.92 4.28l0.01 0c0.29,-0.04 0.56,0.17 0.6,0.46l0.33 2.44 -1.07 0.15 -0.33 -2.45c-0.04,-0.29 0.17,-0.56 0.46,-0.6zm19.34 -21.48l0.01 0c0.23,0 0.41,0.18 0.41,0.41l0 1.14 -0.83 0 0 -1.14c0,-0.23 0.19,-0.41 0.41,-0.41zm5.2 0l0.01 0c0.23,0 0.41,0.18 0.41,0.41l0 1.14 -0.82 0 0 -1.14c0,-0.23 0.18,-0.41 0.4,-0.41zm-11.64 5.92l0.01 0c0.22,0 0.41,0.18 0.41,0.41l0 1.14 -0.83 0 0 -1.14c0,-0.23 0.19,-0.41 0.41,-0.41zm2.77 0l0 0c0.23,0 0.41,0.18 0.41,0.41l0 1.14 -0.82 0 0 -1.14c0,-0.23 0.18,-0.41 0.41,-0.41zm2.57 9.45l0.01 0c0.23,0 0.41,0.19 0.41,0.41l0 1.15 -0.83 0 0 -1.15c0,-0.22 0.19,-0.41 0.41,-0.41zm-4.72 3.94l0.01 0c0.44,0 0.79,0.35 0.79,0.79l0 2.22 -1.59 0 0 -2.22c0,-0.44 0.35,-0.79 0.79,-0.79zm11.7 -5.83l0.02 0c0.43,0 0.79,0.36 0.79,0.79l0 2.23 -1.6 0 0 -2.23c0,-0.43 0.35,-0.79 0.79,-0.79zm0.63 -7.56l0 0c0.23,0 0.41,0.18 0.41,0.41l0 1.14 -0.82 0 0 -1.14c0,-0.23 0.18,-0.41 0.41,-0.41z"/>
    </g>
    <rect class="fil2" width="260.52" height="187.78"/>
   </g>
   <path class="fil3" d="M190.2 45.16c-1.84,0.48 -2.42,1.06 -2.42,1.06 0,0 -0.27,0.04 -0.54,0.11 0.15,-0.17 0.29,-0.41 0.39,-0.74 -0.36,0 -0.69,0.1 -0.95,0.22 -0.25,-0.17 -0.56,-0.26 -0.76,-0.27 -0.12,-0.33 -0.31,-0.68 -0.61,-0.84 -0.15,0.24 -0.19,0.6 -0.17,0.95 -0.15,-0.21 -0.31,-0.39 -0.31,-0.39 0,0 -0.06,-0.82 -1.14,-2.38 -0.38,-0.72 -1.43,-2.18 -3.8,-2.61 0,0 0.62,0.98 0.22,1.96 0.59,0.31 1.85,1.58 1.71,2.89 1.41,-0.13 2.64,1.08 3.15,1.96 0.12,0.21 0.31,0.4 0.58,0.52 0.44,0.2 0.87,0.17 1.15,-0.03l0 0c0.82,-0.41 2.47,-0.52 3.46,0.51 0.74,-1.09 2.53,-1.24 3.18,-1.08 0.33,-1.02 1.44,-1.35 1.44,-1.35 -2.08,-1.22 -3.82,-0.79 -4.58,-0.49z"/>
  </g>
 </g>
</svg>
