<?xml version="1.0" encoding="UTF-8"?>
<!DOCTYPE svg PUBLIC "-//W3C//DTD SVG 1.1//EN" "http://www.w3.org/Graphics/SVG/1.1/DTD/svg11.dtd">
<!-- Creator: CorelDRAW -->
<svg xmlns="http://www.w3.org/2000/svg" xml:space="preserve" width="536px" height="135px" version="1.1" style="shape-rendering:geometricPrecision; text-rendering:geometricPrecision; image-rendering:optimizeQuality; fill-rule:evenodd; clip-rule:evenodd"
viewBox="0 0 42.75 10.8"
 xmlns:xlink="http://www.w3.org/1999/xlink"
 xmlns:xodm="http://www.corel.com/coreldraw/odm/2003">
 <defs>
  <style type="text/css">
   <![CDATA[
    .fil0 {fill:#13171C}
   ]]>
  </style>
 </defs>
 <g id="Слой_x0020_1">
  <metadata id="CorelCorpID_0Corel-Layer"/>
  <path class="fil0" d="M24.36 7.96c0.05,-0.01 0.1,-0.02 0.15,-0.04 0.05,-0.01 0.09,-0.03 0.14,-0.04 0.06,-0.01 0.11,-0.01 0.18,0 0.07,0 0.02,-0.05 0.13,-0.04 -0.01,0.08 -0.13,0.3 -0.17,0.37 -0.06,0.09 -0.18,0.22 -0.29,0.26 -0.06,-0.17 -0.13,-0.3 -0.14,-0.51zm-12.34 -1.77c0.02,-0.56 0.01,-1.12 -0.02,-1.68 -0.02,-0.54 -0.04,-1.12 -0.02,-1.67 0.01,0.01 0.01,0.01 0.01,0.02l0.03 0.1c0.17,0.57 0.31,1.15 0.44,1.74 0.02,0.11 0.2,1.04 0.19,1.11 0,0.05 -0.03,0 -0.04,0.11 0,0.11 -0.05,0.09 -0.15,0.13l-0.44 0.14zm-1.77 -5.67c-0.01,0.01 0,-0.01 -0.01,0.03 -0.01,0.08 -0.02,0.46 -0.02,0.54 0,0.42 0.04,0.75 0.06,1.15 0,0.05 -0.02,0.07 -0.03,0.12 -0.02,0.08 -0.02,0.05 -0.05,0.11 -0.03,0.06 -0.04,0.18 0.01,0.23l0.1 -0.02c0.02,0.08 0.06,0.6 0.07,0.72 0,0.13 0.01,0.26 0,0.39 0,0.09 0,0.09 0.06,0.13 0.03,0.01 0.04,0.02 0.06,0.03 0.05,0.02 0.05,-0.01 0.07,0.01 0.06,0.04 0.01,0.37 0.09,0.5 0.02,0.04 0.01,0.09 0.01,0.14 0.01,0.04 0.01,0.09 0.02,0.13 0.03,0.26 0.12,0.47 0.17,0.72 0.04,0.17 0.06,0.34 0.08,0.52 0.09,0.74 0.22,1.41 0.16,2.19 0.13,0 0.61,-0.08 0.69,-0.04 0.02,0.01 0.07,0.06 0.08,0.1 0.02,0.05 0.02,0.09 0,0.15 -0.08,0.34 -0.03,0.27 0.1,0.38 0.03,0.04 0.08,0.06 0.13,0.02 0.07,-0.04 0.15,-0.11 0.17,-0.2 0.01,-0.11 -0.02,-0.24 0.04,-0.33 0.02,-0.03 0.08,-0.07 0.12,-0.02 0.01,0.03 0.02,0.08 0.03,0.1 0.03,0.1 0.13,0 0.15,-0.04 0.03,-0.04 0.08,-0.1 0.14,-0.07 0.01,0.07 0.01,0.18 0,0.25 -0.01,0.11 -0.06,0.12 0.03,0.18 0.12,0.09 0.24,-0.21 0.34,-0.1 0.01,0.02 0,0.33 -0.01,0.38 0,0.14 -0.09,0.1 -0.09,0.35 0.01,0.15 0.02,0.23 0.19,0.25 0.1,0.02 0.12,0.01 0.18,-0.04 0.02,-0.02 0.08,-0.07 0.1,-0.11 0.02,-0.07 -0.01,-0.34 -0.03,-0.41 0,-0.15 -0.12,-0.53 -0.13,-0.6l0.04 -0.01c-0.02,-0.12 0.14,-0.02 0.16,-0.1l0.16 -1.13c0.04,-0.32 0.14,-1.03 0.15,-1.33 -0.21,0.06 -0.17,0.02 -0.31,0.04 -0.1,0.02 -0.06,0.05 -0.12,0.03 -0.04,-0.01 -0.08,-0.03 -0.12,-0.05 -0.22,-0.11 -0.17,-0.18 -0.19,-0.3 -0.05,-0.25 -0.16,-0.39 -0.23,-0.59 -0.02,-0.04 -0.02,-0.1 -0.03,-0.15 -0.04,-0.13 -0.1,-0.22 -0.15,-0.33 -0.04,-0.08 -0.07,-0.16 -0.08,-0.25 -0.02,-0.14 -0.19,-0.61 -0.24,-0.76 -0.08,-0.23 -0.18,-0.51 -0.25,-0.74 -0.04,-0.12 -0.06,-0.17 0.02,-0.24 0,-0.08 -0.02,-0.17 -0.03,-0.25 -0.02,-0.24 -0.03,-0.54 -0.02,-0.78 0,-0.1 0.04,-1.01 0.04,-1.02 -0.34,-0.01 -0.65,-0.01 -0.99,0.01 -0.15,0.01 -0.3,0.02 -0.46,0.04 -0.13,0.02 -0.3,0.04 -0.43,0.07zm21.5 8.77c-0.05,0.01 -0.09,-0.02 -0.12,-0.05 -0.04,-0.03 -0.05,-0.05 -0.06,-0.13 -0.01,-0.09 -0.04,-0.23 -0.04,-0.31l0.46 0c0.01,0.15 -0.17,0.41 -0.24,0.49zm-0.69 -2.32c0,-0.07 0.07,-0.45 0.09,-0.58 0,-0.02 0,-0.06 0.02,-0.08 0.02,0.06 0.11,0.22 0.15,0.29 0.03,0.05 0.13,0.25 0.15,0.29 -0.2,0 -0.26,0 -0.41,0.08zm-0.03 2.15c0.08,0.15 0.16,0.04 0.2,0.04 0.02,0 0.06,0.02 0.07,0.03 -0.03,0.03 -0.14,0.17 -0.13,0.25 0.02,0.14 0.2,0.05 0.29,0.08 0.02,0.29 -0.08,0.24 -0.02,0.37 0.03,0.04 0.07,0.11 0.13,0.11 0.09,0 0.12,-0.02 0.15,-0.07 0.01,0.03 0.02,0.06 0.03,0.09 0.01,0.04 -0.03,0.16 0.19,0.15 0.01,-0.04 0.04,-0.06 0.05,-0.11 0.05,-0.17 -0.13,-0.37 0.01,-0.52 0.11,-0.13 0.13,0.03 0.2,-0.27 0.05,-0.01 0.08,-0.02 0.13,-0.03 0.06,-0.02 0.04,-0.03 0.11,-0.04 0.02,-0.07 0.04,-0.14 0.06,-0.21 0.02,-0.14 0.02,-0.14 -0.02,-0.22 -0.08,-0.17 -0.06,-0.49 -0.06,-0.71 0,-0.17 -0.01,-0.08 0.06,-0.19 0.06,-0.1 0.06,-0.02 0.17,-0.09 0.04,-0.03 0.11,-0.08 0.13,-0.13 -0.03,-0.07 -0.07,-0.12 -0.11,-0.18 -0.02,-0.03 0.01,-0.07 0.02,-0.11 0.01,-0.03 0.02,-0.07 0.02,-0.11 0.02,-0.11 0,-0.15 0.04,-0.25 0.03,-0.08 0.06,-0.13 0.07,-0.21 -0.13,0.01 -0.27,0.02 -0.4,0.03 -0.13,0.01 -0.29,0.01 -0.43,0.01 -0.12,0 -0.25,-0.04 -0.33,-0.1 -0.05,-0.03 -0.15,-0.19 -0.18,-0.25 -0.13,-0.18 -0.17,-0.23 -0.2,-0.45 0,-0.06 -0.03,-0.09 -0.03,-0.17 0,-0.1 0.02,-0.3 0.04,-0.39 0.01,-0.06 0.01,-0.04 0.05,-0.06 0.02,-0.02 0.04,-0.03 0.06,-0.05 0.04,-0.02 0.05,0 0.08,0 0.1,-0.01 0.12,-0.04 0.1,0.2 0,0.06 0,0.05 0.03,0.08 0.02,0.03 0.02,0.04 0.07,0.05 0.02,-0.03 -0.01,-0.03 0.04,-0.05 0.06,-0.02 0.06,0 0.06,0 0.04,0.04 -0.02,0.27 0.07,0.33 0.03,0.02 0.18,-0.01 0.19,-0.02 0.06,-0.21 -0.12,-0.37 -0.02,-0.58 0.01,-0.03 0.01,-0.03 0.04,-0.04 0.17,-0.07 0.13,-0.25 0.18,-0.43 0.01,-0.07 0.03,-0.05 0.02,-0.14 0,-0.05 0,-0.1 0.01,-0.16 0.02,-0.25 0.19,-0.72 0.14,-0.87l-0.94 -0.02 0.06 -0.84c0,-0.05 -0.01,-0.25 0,-0.29l0.72 0c0.01,0.02 0.06,0.23 0.09,0.32 0.06,0.19 0.12,0.06 0.22,0.02 0.03,0.09 0.03,0.31 0.05,0.35 0.03,0.03 0.07,0.05 0.13,0.07 0.05,0.02 0.09,0.04 0.14,0.06 -0.06,0.12 -0.02,0.11 -0.05,0.17 -0.01,0.03 -0.01,0.02 -0.02,0.04 -0.02,0.04 -0.02,0.17 -0.05,0.23 -0.03,0.09 -0.06,0.11 -0.03,0.23 0.02,0.06 0.05,0.14 0.08,0.2 0.37,-0.03 0.32,-0.1 0.31,-0.26l-0.07 -1.1c-0.01,-0.02 -0.02,-0.12 -0.01,-0.14 0.02,-0.08 0.12,0.01 0.23,-0.2 0.06,-0.12 0.09,-0.34 0.11,-0.48 0.04,-0.2 0.23,-1.37 0.23,-1.54 -0.02,-0.01 -0.02,0 -0.04,-0.02 -0.03,0.01 -0.4,-0.03 -0.48,-0.03 -0.24,-0.01 -0.73,0 -0.96,0.05l-0.83 0.21c-0.23,0.06 -0.16,0.03 -0.39,0.12 -0.19,0.08 -0.38,0.15 -0.57,0.21 -0.16,0.05 -0.2,0.02 -0.21,0.08 -0.03,0.2 -0.03,1.04 -0.04,1.26 -0.01,0.43 0,0.87 -0.02,1.31 -0.02,0.43 -0.01,0.87 -0.02,1.3 0,0.11 0,0.22 -0.01,0.33 0,0.07 -0.02,0.08 -0.05,0.12 -0.07,0.09 -0.14,0.18 -0.21,0.28 -0.03,0.06 -0.04,0.04 -0.04,0.13 0.01,0.05 0,0.12 0.01,0.16 0.08,0 0.05,0 0.08,0.02 0.03,0.03 0.05,0.03 0.1,0.03 0.2,0 0.07,0.11 0.04,0.18 -0.01,0.03 -0.01,0.05 -0.01,0.07 -0.02,0.04 -0.12,0.21 -0.13,0.35 0.04,0.04 0.18,0.13 0.25,0.16 0.02,0.28 0.04,0.56 0.06,0.84l0.04 0.86c0.03,0 0.06,0.01 0.09,0.02 0.06,0.01 0.04,0.01 0.05,0.03 0.16,0.02 0.5,0.02 0.57,0.03 0.15,0.02 0.1,0.34 0.14,0.47zm3.79 0.03l0.23 0c0.06,0 0.05,0 0.1,0.03 0.1,0.05 0.11,-0.01 0.2,0.05 0.01,0.01 0.02,0.02 0.03,0.02l0.03 0.02c0,0 0.01,0 0.01,0l0.01 0c-0.03,0.06 -0.08,0.13 -0.12,0.18 -0.03,0.05 -0.02,0.03 -0.09,0.04 -0.05,0.01 -0.09,0.01 -0.14,0.02l-0.14 -0.17c-0.05,-0.07 -0.05,-0.07 -0.08,-0.15 -0.01,-0.02 -0.02,-0.02 -0.04,-0.04zm0.23 -5.14c-0.01,-0.11 0.01,-0.51 0.06,-0.6 0,0 0,-0.01 0.01,-0.01 0,0 0,0 0,0 0.05,0.09 0.18,0.19 0.25,0.42 0.01,0.03 0.01,0.06 0.02,0.09 0.01,0.06 0.02,0.04 0.04,0.07l-0.38 0.03zm0.71 6.66c0.04,-0.08 0.03,-0.15 0.04,-0.25 0.01,-0.11 0.03,-0.15 0.09,-0.21 0.24,-0.19 -0.16,-0.51 0.05,-0.64 0.09,-0.06 0.09,-0.02 0.14,-0.15 0.05,-0.12 0.02,-0.15 -0.04,-0.23 -0.07,-0.09 -0.02,-0.09 -0.03,-0.15 0,-0.04 -0.01,-0.03 0,-0.07 0.07,-0.05 0.2,0.01 0.22,-0.07 0,-0.04 -0.09,-0.43 -0.04,-0.81 0.02,-0.17 0.08,-0.29 0.12,-0.46 0.02,-0.12 0.06,-0.37 0.13,-0.44l-0.02 -0.02c-0.02,-0.02 -0.02,-0.08 -0.03,-0.09 -0.48,-0.14 -1.15,-0.04 -1.68,-0.12 0.01,-0.05 0.06,-0.17 0.08,-0.33 0.06,-0.36 0.04,-0.97 0.07,-1.16 0.11,0 0.22,0 0.34,0 0.07,0 0.1,-0.02 0.13,0.03 0.09,0.13 -0.01,0.3 0.1,0.41 0.06,0.07 0.13,-0.02 0.22,-0.06 -0.01,0.07 -0.05,0.2 -0.04,0.26 0.01,0.1 0.07,0.15 0.1,0.21 0.1,0 0.28,0.02 0.3,-0.07 0.01,-0.03 0.01,-0.3 0.01,-0.36 0,-0.12 -0.01,-0.23 0.01,-0.35 0.01,-0.05 0.02,-0.09 0.04,-0.14 0.02,-0.04 0.01,-0.1 0.02,-0.16 0.04,-0.41 0.22,-0.79 0.22,-1.22l-0.51 0c-0.01,0 -0.03,-0.03 -0.04,-0.05 -0.12,-0.15 -0.17,-0.12 -0.24,-0.23 -0.12,-0.17 -0.3,-0.37 -0.36,-0.57 -0.03,-0.1 -0.02,-0.08 0,-0.14 0.01,-0.05 0,-0.13 0.01,-0.16 0.03,-0.06 0.09,-0.03 0.14,-0.04 0.05,-0.01 0.1,-0.02 0.15,-0.03 0.07,-0.01 0.29,-0.03 0.35,0 0.06,0.04 0.06,0.21 0.07,0.3 0.05,0.03 0.12,0.06 0.19,0.05l-0.04 0.28c0.03,0.04 0.09,0.09 0.14,0.11 0.01,-0.02 -0.01,-0.03 0.06,-0.05 0.03,-0.01 0.06,-0.02 0.09,-0.02 0.03,0.07 0,0.18 0.04,0.24 0.04,0.07 0.16,0.05 0.22,0.02 0.12,-0.06 0.09,-0.11 0.08,-0.17 -0.02,-0.08 -0.03,-0.15 -0.04,-0.24 -0.01,-0.3 0.12,-0.61 0.23,-0.88 0.11,-0.27 0.21,-0.55 0.31,-0.82 0.05,-0.14 0.09,-0.28 0.14,-0.42l0.13 -0.42c-0.02,-0.02 0.02,-0.02 -0.03,-0.02 -0.32,0 -0.64,0 -0.96,0 -0.16,0 -0.29,0.02 -0.44,0.04 -0.25,0.03 -2.02,0.23 -2.14,0.26 -0.01,0.18 -0.03,0.36 -0.03,0.54 -0.03,0.56 -0.04,1.08 -0.06,1.64 -0.03,1.11 -0.07,2.19 -0.12,3.29 0,0.05 0,0.23 -0.02,0.26 -0.01,0.02 -0.02,0.01 -0.03,0.05 -0.02,0.06 0,0.06 -0.06,0.15 -0.03,0.06 -0.07,0.1 -0.1,0.18 -0.03,0.12 0.02,0.13 0.06,0.2 0.07,0.12 0.05,0.36 0.03,0.51 -0.02,0.12 0.01,0.22 -0.01,0.26 -0.02,0.07 -0.05,0.13 -0.07,0.2 -0.03,0.08 -0.05,0.14 -0.08,0.21 -0.05,0.15 -0.09,0.26 0.04,0.42 0.06,0.08 0.11,-0.03 0.2,-0.03 0.05,0.09 0.13,0.24 0.15,0.36 0.19,0.02 0.2,-0.11 0.27,-0.23 0.07,-0.1 0.09,-0.08 0.16,-0.07 0.07,0.02 0.13,0.03 0.19,0.06 0.34,0.12 0.28,0.24 0.23,0.44 -0.03,0.1 -0.01,0.13 0.03,0.2 0.11,0 0.14,-0.1 0.21,-0.1 0.07,-0.01 0.07,0.03 0.09,0.07 0.03,0.04 0.06,0.05 0.03,0.1 -0.09,0.21 -0.13,0.21 -0.1,0.36 0.03,0.12 -0.07,0.19 0.28,0.19 0.06,0 0.12,-0.12 0.14,-0.17 0.04,-0.1 -0.02,-0.17 -0.03,-0.2 -0.01,-0.03 -0.01,-0.16 0.04,-0.2 0.03,-0.02 0.07,-0.06 0.11,-0.05 0.11,0.06 0.04,0.71 0.05,0.93 0.01,0.07 0.01,0.1 0.06,0.14 0.04,0.02 0.13,0.03 0.18,0.02 0.1,-0.02 0.05,-0.07 0.06,-0.12zm-26.45 -2.82c-0.01,-0.01 -0.01,0 -0.02,-0.01 -0.06,-0.08 -0.08,-0.27 -0.06,-0.39 0.02,-0.05 0.02,-0.04 0.07,-0.06 0.12,-0.03 0.19,-0.04 0.32,-0.05 0.06,0.16 -0.05,0.34 -0.09,0.35 -0.05,0.01 -0.07,0.02 -0.1,0.09 -0.02,0.04 -0.06,0.09 -0.12,0.07zm-1.56 -2.67c0.01,-0.21 0.04,-0.44 0.05,-0.66 0.02,-0.21 0.02,-0.45 0.05,-0.66 0.03,-0.21 0.05,-0.42 0.08,-0.63 0,-0.09 0.04,-0.63 0.05,-0.65 0.02,0.31 0.16,0.63 0.23,0.92 0.15,0.62 -0.14,0.74 0.02,0.98l0.07 0 0.04 0.38 0.22 0c0.02,0.1 0.05,0.17 0.04,0.28 -0.28,0.01 -0.56,0.06 -0.85,0.04zm-0.47 3.78c-0.01,-0.03 -0.02,-0.13 -0.02,-0.19 0.02,-0.13 0.16,-0.12 0.19,-0.13 0.04,-0.01 0.12,-0.07 0.23,-0.07l0.13 -1.96c0.11,-0.04 0.41,-0.2 0.56,-0.02 0.13,0.14 -0.13,0.44 0.01,0.6 0.17,0 0.14,0.02 0.21,-0.06 0.01,-0.02 0.04,-0.14 0.23,-0.1 0.16,0.45 -0.04,0.69 -0.03,1.11 0.05,0.03 0.08,0.07 0.17,0.08 -0.02,0.16 -0.05,0.29 -0.04,0.46 0.06,0.03 0.14,0.12 0.22,0.14 0.19,-0.14 0.22,-0.51 0.23,-0.75 0.07,0.01 0.16,0.05 0.31,0.05 0.08,-0.01 0.08,-0.01 0.11,-0.07 0.13,-0.25 -0.1,-0.3 0.01,-0.41 0.04,-0.05 0.2,-0.07 0.27,-0.09 0,-0.09 -0.01,-0.17 -0.04,-0.25 0.05,-0.04 0.22,-0.05 0.29,-0.05 0.12,-0.01 0.19,-0.02 0.28,-0.07 0.01,-0.04 -0.04,-0.25 -0.06,-0.3 -0.02,-0.09 -0.05,-0.19 -0.08,-0.28 -0.06,-0.18 -0.12,-0.37 -0.17,-0.55 -0.06,-0.19 -0.11,-0.37 -0.16,-0.56 -0.03,-0.1 -0.06,-0.19 -0.08,-0.29 -0.02,-0.07 -0.03,-0.08 0.02,-0.12 0.03,-0.03 0.07,-0.06 0.09,-0.09 0,-0.04 -0.01,-0.18 -0.03,-0.22 -0.06,-0.17 -0.31,-0.42 -0.31,-0.43 0.05,-0.06 0.14,-0.11 0.08,-0.22 -0.02,-0.03 -0.04,-0.05 -0.07,-0.08 -0.02,-0.02 -0.03,-0.02 -0.05,-0.04 -0.12,-0.1 -0.06,-0.07 -0.1,-0.14 -0.02,-0.05 -0.06,-0.05 -0.08,-0.09 -0.02,-0.06 -0.05,-0.16 -0.07,-0.24 -0.2,-0.66 -0.4,-1.33 -0.6,-1.99 -0.05,-0.16 -0.09,-0.33 -0.14,-0.49 -0.03,-0.09 -0.05,-0.17 -0.07,-0.26 -0.01,-0.03 -0.03,-0.1 -0.04,-0.12 -0.02,-0.03 -0.06,-0.05 -0.08,-0.08 -0.11,0.03 -0.1,-0.05 -0.16,-0.04 -0.03,0.02 -0.01,0.01 -0.03,0.04 -0.22,0.01 -0.46,0.01 -0.68,0.02 -0.12,0 -0.23,0.01 -0.34,0.02 -0.12,0 -0.2,-0.01 -0.31,0.03 -0.01,0.06 0,0.08 -0.04,0.11 -0.05,0.05 -0.04,0.01 -0.05,0.1l-0.09 0.79c-0.04,0.35 -0.08,0.7 -0.12,1.05 -0.03,0.17 -0.02,0.37 -0.04,0.55 -0.02,0.17 -0.05,0.34 -0.08,0.51 -0.05,0.33 -0.11,0.67 -0.15,1.01 -0.04,0.36 0.02,0.27 -0.12,0.47 -0.04,0.06 -0.08,0.12 -0.12,0.18 -0.02,0.04 -0.04,0.05 -0.02,0.11 0.05,0.14 0.08,0.08 0.13,0.16 0.05,0.07 -0.02,0.22 -0.04,0.37 -0.06,0.7 -0.14,1.42 -0.21,2.13 -0.02,0.17 -0.04,0.36 -0.05,0.53 0.03,-0.02 0,0 0.02,-0.02 0.03,-0.01 0.05,-0.02 0.08,-0.02 0.05,0 0.08,0 0.11,0.03l0.01 0.65c0,0.05 -0.08,0.12 -0.05,0.34 0.01,0.12 0.01,0.11 0.1,0.16 0.08,0.05 0.11,0.07 0.16,-0.01 0.06,-0.1 0.04,-0.34 0.04,-0.48 0.16,0.02 0.24,0.01 0.23,-0.16 -0.01,-0.14 -0.04,-0.25 -0.01,-0.38l0.1 -0.04c0.03,0.02 0.05,0.04 0.08,0.07 0.03,0.02 0.06,0.04 0.08,0.06 0,0.06 0,0.08 -0.03,0.11 -0.06,0.08 0.04,0.14 0.08,0.18 0.04,0.03 0.04,0.04 0.1,0.04 0.01,-0.05 0.02,-0.03 0.05,-0.06 0.03,-0.01 0.04,-0.02 0.05,-0.05 0.02,-0.06 0.01,-0.13 0,-0.19zm31.7 -1.9c-0.03,0 -0.18,-0.08 -0.22,-0.1 -0.04,-0.03 -0.07,-0.02 -0.12,-0.04 -0.15,-0.08 -0.1,-0.18 -0.1,-0.38 0,-0.29 0.03,-1.34 0.06,-1.56 0.04,0.37 0.09,0.74 0.15,1.09 0.04,0.24 0.19,0.1 0.17,0.44 -0.01,0.2 0.09,0.34 0.06,0.55zm3.41 -4.12c0.02,-0.1 0.06,-0.21 0.09,-0.31 0.02,-0.09 0.05,-0.2 0.08,-0.29l0.19 -0.58c-0.03,-0.02 -0.07,-0.02 -0.11,-0.03 -0.08,-0.02 -0.2,0 -0.29,-0.01 -0.14,0 -0.14,-0.04 -0.19,-0.04 -0.02,0 -0.05,0 -0.07,0.01l-1.12 0.1c-0.09,0.01 -0.18,0.02 -0.28,0.03 -0.03,0 -0.24,0.02 -0.26,0.04 -0.03,0.03 -0.06,0.43 -0.07,0.51 -0.02,0.17 -0.04,0.32 -0.07,0.48 -0.12,0.66 -0.16,1.33 -0.28,1.97l-0.09 0.47c0,0.11 -0.01,0.41 -0.06,0.49 -0.04,-0.06 -0.07,-0.21 -0.09,-0.29 -0.02,-0.14 -0.02,-0.25 -0.04,-0.32 -0.01,-0.09 -0.05,-0.2 -0.08,-0.29 -0.02,-0.09 -0.05,-0.22 -0.05,-0.31 0.02,-0.02 0.07,-0.06 0.09,-0.07 -0.01,-0.26 -0.31,-0.53 -0.31,-0.81 0,-0.05 0.01,-0.05 0.04,-0.08 0.05,-0.04 0.08,-0.08 0.12,-0.12 0.02,-0.03 0.03,-0.07 0.02,-0.11 0,-0.02 -0.11,-0.16 -0.15,-0.22 -0.22,-0.37 -0.27,-0.75 -0.31,-1.18 -0.01,-0.15 -0.01,-0.27 -0.08,-0.41 -0.29,0.05 -0.57,0.1 -0.85,0.17 -0.13,0.03 -0.26,0.07 -0.4,0.11 -0.07,0.01 -0.14,0.03 -0.21,0.04 -0.06,0.01 -0.18,0.01 -0.23,0.02 -0.03,0.3 -0.05,0.61 -0.07,0.91 -0.02,0.31 -0.05,0.6 -0.07,0.91l-0.33 3.59c-0.03,0.3 -0.05,0.6 -0.08,0.9 -0.02,0.22 -0.07,0.71 -0.08,0.9l0.26 0.03c0,0.11 0,0.23 0,0.35 -0.01,0.18 -0.15,0.3 -0.22,0.48 -0.03,0.07 -0.04,0.22 0.02,0.27 0.14,0 0.27,0.03 0.32,-0.08 0.02,-0.06 0.03,-0.26 0.04,-0.35l0.15 0c0.04,-0.09 0.14,-0.2 0.17,-0.37 0.16,-0.05 0.11,-0.15 0.16,-0.22 0.02,-0.03 0.17,-0.11 0.25,-0.11 0.01,0.07 0.02,0.23 0.04,0.28l0.21 -0.02 0.07 -0.22c0.09,0.02 0.11,0.05 0.22,0.04 0,-0.18 0.02,-0.37 0.03,-0.55 0.01,-0.19 0.02,-0.37 0.03,-0.56 0.01,-0.19 0.01,-0.37 0.02,-0.56 0.01,-0.3 0,-0.25 0.06,-0.52 0.03,0.01 0.18,0.12 0.22,0.15 0.19,0.15 0.25,0.17 0.35,0.37 0.04,0.08 0.07,0.17 0.09,0.26 0.07,0.25 0.13,1 0.15,1.29 0.21,0.03 0.51,-0.09 0.52,0.16 0.01,0.08 -0.01,0.14 -0.02,0.21 0.02,0.01 0.05,0.02 0.07,0.02 0.07,0.04 0.09,0.07 0.18,0.08 0.01,0.06 -0.02,0.21 -0.03,0.26 -0.02,0.05 -0.05,0.07 -0.05,0.11 0,0.03 0.01,0.05 -0.01,0.08 -0.01,0.02 -0.03,0.01 -0.04,0.03 0,0.05 -0.01,0.19 0.01,0.21 0.04,0.09 0.29,0.11 0.28,-0.22 0.08,-0.03 0.1,-0.08 0.25,-0.07 0.02,-0.12 0.05,-0.24 0.07,-0.37 0.02,-0.14 0.02,-0.27 0.02,-0.42l0.13 0c0.11,-0.12 0.01,-0.53 0.11,-0.75 0.02,-0.03 0.01,-0.06 0.02,-0.1 0.08,-0.68 0.23,-1.34 0.44,-1.99 0.04,-0.12 0.09,-0.25 0.13,-0.36 0.05,0.02 0.01,0.02 0.1,0.02 0.14,0 0.18,0 0.19,-0.14 0,-0.14 0,-0.3 0.01,-0.44 0.07,0 0.11,-0.02 0.14,-0.07 -0.01,-0.08 -0.05,-0.13 -0.05,-0.24 0,-0.13 0.05,-0.16 0.07,-0.22 0.12,0.02 0.05,0.04 0.2,-0.02l0.05 -0.03c0.01,-0.44 0,-0.56 0.07,-1 0.02,-0.13 0.15,-0.8 0.19,-0.88zm-41.59 2.53c0,-0.11 0.01,-0.29 0.03,-0.4 0.01,0.01 0.01,0.01 0.01,0.02l0.07 0.18c0.07,0.18 0.17,0.42 0.22,0.59 0.04,0.11 0.23,0.74 0.25,0.84 -0.06,-0.03 -0.2,-0.15 -0.24,-0.19 -0.08,-0.08 -0.13,-0.14 -0.19,-0.25 -0.12,-0.23 -0.15,-0.5 -0.15,-0.79zm2.96 -1.34c0.01,-0.11 0.1,-0.18 0.14,-0.26 0.04,-0.11 -0.02,-0.08 0.1,-0.29 0.03,0.06 0.05,0.41 0.04,0.5 -0.11,0.06 -0.16,0.06 -0.28,0.05zm2.36 -0.42c0.03,-0.12 0.11,-0.18 0.06,-0.3 -0.03,-0.06 -0.13,-0.25 -0.13,-0.28 -0.01,-0.15 0,-0.64 0.01,-0.82 0.02,-0.6 0.03,-0.94 0.09,-1.55 -0.23,-0.01 -0.69,0 -0.92,0.01 -0.22,0.02 -0.6,0.06 -0.81,0.11 -0.13,0.03 -0.25,0.06 -0.37,0.1 -0.09,0.03 -0.11,0.01 -0.13,0.09 -0.02,0.06 -0.04,0.12 -0.05,0.19 0,0.03 -0.02,0.18 -0.03,0.2 -0.03,0.05 -0.09,0.05 -0.09,0.15 0,0.02 0.05,0.16 0.06,0.17 0.02,0.01 0.18,0.01 0.21,0.02 -0.01,0.03 -0.06,0.09 -0.09,0.12 -0.05,0.07 -0.03,0.09 -0.06,0.15 -0.05,0.1 -0.15,0.15 -0.15,0.27 0.07,0.03 0.12,0.06 0.21,0.04 0.01,0.05 -0.02,0.1 -0.04,0.13 -0.04,0.05 -0.03,0.03 -0.05,0.11 -0.03,0.08 -0.05,0.16 -0.08,0.25l0.01 0c0,0.01 0,0.01 0.01,0.01 0,0 0,0 0,0 0.01,0.01 0,0.01 0.01,0.02 0.06,0.1 0.14,0.1 0.25,0.13 0.01,0.09 -0.03,0.18 -0.06,0.25 -0.06,0.15 -0.12,0.29 -0.2,0.43 -0.1,0.21 -0.19,0.41 -0.39,0.54 -0.15,0.1 -0.49,0.14 -0.52,0.09l-0.02 -0.08c-0.06,-0.22 -0.11,-0.39 -0.14,-0.62 -0.05,-0.37 -0.18,-0.75 -0.19,-1.11 0,-0.08 -0.02,-0.11 -0.04,-0.18 -0.07,-0.31 -0.02,-0.65 -0.15,-0.93 -0.08,0 -0.1,0.02 -0.16,0.04 -0.08,0.04 -0.62,0.14 -0.95,0.28 -0.04,0.01 -0.08,0.04 -0.13,0.06 -0.17,0.07 -0.37,0.09 -0.52,0.2 -0.03,0.01 -0.04,0.03 -0.06,0.04 -0.06,0.04 -0.42,0.17 -0.51,0.29 0.07,0.3 0.06,0.38 0.09,0.68 0.02,0.23 0.04,0.47 0.06,0.7 0.02,0.14 0.03,0.21 0.01,0.35 -0.01,0.14 -0.17,0.74 0.02,0.79 0.07,0.02 0.07,0.05 0.14,0.02 0.06,0.03 0.05,0.07 0.06,0.15l0.09 0.51c0.03,0.19 0.04,0.38 0.03,0.57 0,0.05 0.02,0.12 0.03,0.17 0.03,0.25 -0.02,0.5 -0.05,0.75 -0.05,0.44 0.01,0.33 0.08,0.41 0.03,0.04 0.06,0.08 0.11,0.09 0.05,0.01 0.05,0 0.06,-0.03 0.1,0 0.06,-0.07 0.1,-0.13 0.03,-0.03 0.04,0 0.04,-0.07 0.01,-0.18 -0.1,-0.28 -0.04,-0.47 0.11,-0.01 0.16,0.06 0.19,0.16 0.06,0.16 0,0.19 0.06,0.29 0.03,0.04 0.04,0.07 0.12,0.07 0.04,-0.01 0.06,-0.06 0.07,-0.1 0.05,-0.09 0.06,-0.16 0.08,-0.27 0.07,0.07 0.16,0.23 0.2,0.35 0.07,0.24 0.08,0.5 0.04,0.74 -0.01,0.07 0.01,0.45 0.17,0.36 0.05,-0.03 0.11,-0.08 0.13,-0.14 0.05,0.05 0.1,0.12 0.14,0.18 0.03,0.03 0.05,0.06 0.07,0.09 0.02,0.02 0.03,0.03 0.04,0.04 0.01,0.02 0.03,0.03 0.04,0.05 0.05,0.09 0.03,0.47 0.04,0.61 0.01,0.18 0.04,0.35 0.22,0.42 0.06,0.02 0.08,-0.01 0.1,-0.05 0.09,-0.17 0.04,-0.23 0.04,-0.4l0.08 -0.02 0.02 0.05c0.07,0.01 0.05,0.02 0.1,0.06 0.03,0.04 0.03,0.04 0.02,0.11 0.04,0.02 0.09,0.06 0.14,0.06 0.01,-0.01 0,0.01 0.01,-0.02l0.02 -0.07c0.03,-0.1 0.03,-0.19 0.02,-0.3 0.04,-0.01 0.07,-0.03 0.12,-0.04 0.05,-0.02 0.07,0 0.12,-0.03 0.06,-0.03 0.14,-0.07 0.22,-0.08 0,-0.06 -0.21,-1.73 -0.23,-1.92 -0.02,-0.13 -0.03,-0.26 -0.04,-0.39 -0.02,-0.17 -0.05,-0.4 0.11,-0.51 0.08,-0.06 0.24,0.05 0.29,0.1 0.04,0.05 0.02,0.12 0,0.18 -0.03,0.09 -0.02,0.07 0.03,0.13 0.02,0.03 0.07,0.09 0.13,0.06 0.11,-0.05 0.06,-0.2 0.15,-0.29 0.04,-0.03 0.11,-0.04 0.17,0 0.06,0.03 0.05,0.07 0.06,0.15 0.04,0.41 0.04,0.84 0.01,1.25 -0.01,0.05 -0.02,0.15 -0.02,0.19 0,0.03 0.05,0.12 0.07,0.14 0.07,0.02 0.07,-0.02 0.11,-0.05 0.09,-0.02 0.21,0.18 0.23,0.32 0,0.06 -0.01,0.13 0,0.18l0.33 0.02 0 0.58 0.14 0c0.12,-0.25 0.02,-0.28 0.11,-0.38 0.02,-0.03 0.05,-0.06 0.11,-0.05 0.12,0.13 0.13,0.45 0.12,0.66 0,0.12 -0.01,0.26 -0.01,0.38 0,0.05 0.04,0.09 0.08,0.11 0.03,0.02 0.19,0.07 0.19,-0.03 0,-0.09 0,-0.04 0.03,-0.11 0.06,-0.16 -0.16,-0.33 0.05,-0.46 0.06,-0.03 0.11,-0.07 0.17,-0.1l-0.12 -0.65c0.02,-0.01 0.07,-0.05 0.09,-0.07 0.04,-0.03 0.03,-0.07 0.03,-0.13l0 -2.25c0,-0.6 0.01,-1.29 0.04,-1.9 0.01,-0.3 -0.04,-0.4 0.24,-0.39zm11.48 3.31c0.04,0.03 0.04,0.06 0.04,0.12 -0.03,-0.01 -0.08,-0.07 -0.1,-0.1l0.06 -0.02zm6.01 -1.2c0,0.04 -0.11,0.35 -0.15,0.4l-0.37 0.46c-0.1,0.14 -0.23,0.26 -0.32,0.37l-0.2 0.21c-0.04,0.05 -0.1,0.07 -0.17,0.11 -0.11,0.07 -0.21,0.15 -0.32,0.22 -0.09,0.07 -0.22,0.15 -0.35,0.2 -0.06,0.03 -0.16,0.05 -0.2,0.07 -0.07,0.04 -0.12,0.06 -0.19,0.09 -0.5,0.2 -1.67,0.22 -2.19,0.03 -0.04,-0.01 -0.07,-0.03 -0.1,-0.04 -0.11,-0.07 -0.21,0.03 -0.85,-0.38 -0.05,-0.04 -0.31,-0.2 -0.33,-0.22l0.36 -0.31c0.02,-0.02 0.05,-0.05 0.08,-0.08 0.03,-0.03 0.05,-0.05 0.08,-0.08 0.02,-0.02 0.03,-0.03 0.04,-0.04 0.02,-0.02 0.03,-0.03 0.04,-0.05 0.09,-0.11 0.11,-0.1 0.12,-0.21l0.04 -0.45c0.03,-0.14 0.42,-0.01 0.49,-0.17 -0.03,-0.1 -0.19,-0.04 -0.23,-0.15 0.02,-0.04 0.39,-0.27 0.48,-0.31 0.05,-0.03 0.11,-0.06 0.17,-0.09 0.03,0.02 0.09,0.08 0.12,0.1 0.02,0.02 0.04,0.04 0.06,0.06 0.02,0.02 0.04,0.03 0.06,0.05 -0.02,0.05 -0.16,0.16 -0.17,0.31 0.06,0.04 0.08,0.02 0.15,-0.01 0.03,0 0.06,-0.01 0.08,-0.02l0.07 -0.03c0,0.09 0.01,0.18 0.02,0.27 0,0.05 0.02,0.05 0.06,0.09 0.08,0.08 0.3,0.26 0.45,0.25 -0.02,-0.05 -0.04,-0.06 -0.06,-0.14 -0.01,-0.06 -0.01,-0.1 -0.04,-0.15 -0.02,-0.05 -0.03,-0.03 -0.04,-0.07 0,-0.04 0,-0.05 -0.01,-0.08 0,-0.01 -0.1,-0.18 0,-0.16 0.01,0.01 0.03,0.01 0.03,0.02 0.09,0.05 0.09,0.08 0.13,0.12 0.07,0.05 0.09,0.03 0.13,0.05 0.04,0.02 0.22,0.2 0.25,0.24 0.04,0.04 0.02,0.05 0.09,0.08 0.04,0.02 0.07,0.04 0.11,0.05 0.11,0.05 0.34,-0.14 0.41,-0.22 0.06,-0.05 0.24,-0.28 0.25,-0.4 0.02,-0.42 0.26,-1.02 0.13,-1.21 -0.12,-0.21 -0.17,-0.14 -0.3,-0.16 0.02,-0.06 0.14,-0.19 0.19,-0.21 0.02,0.04 0.04,0.05 0.06,0.08 0.11,0.13 0.22,0.26 0.31,0.42 0.03,0.04 0.08,0.15 0.12,0.17 0.1,-0.07 0.06,-0.36 0.02,-0.48 -0.03,-0.11 -0.1,-0.35 -0.09,-0.47 0.08,0.01 0.16,0.03 0.2,-0.04 0.04,-0.05 0.06,-0.11 0.06,-0.19l0.22 -0.14c0.08,-0.06 0.57,-0.37 0.64,-0.4 0.04,0.04 0.07,0.12 0.11,0.17 0.04,0.03 0.19,0 0.26,0 0.07,0.2 0.02,0.24 -0.06,0.43 -0.03,0.1 -0.04,0.19 0.03,0.27 0.06,0.06 0.08,0.01 0.13,0.07 -0.03,0.1 -0.13,0.4 -0.13,0.47 0.03,0.02 0.03,0 0.05,0.04 0.03,0.11 0.05,0.06 0.23,0.04 0,0.23 -0.03,0.42 -0.08,0.62 -0.02,0.06 -0.14,0.49 -0.18,0.53zm1.61 -1.03c-0.02,-0.04 -0.09,-0.52 -0.11,-0.61l-0.09 -0.53c0,-0.04 0,-0.03 0.02,-0.07 0.1,-0.16 0.43,-0.76 0.55,-0.86 -0.01,0.09 -0.03,0.18 -0.04,0.27 -0.04,0.27 -0.06,0.5 -0.16,0.75 -0.03,0.06 -0.07,0.43 -0.08,0.53 -0.02,0.1 -0.06,0.45 -0.09,0.52zm-3.47 -3.75c0.05,0.02 0.17,0.1 0.22,0.13 0.07,0.04 0.13,0.08 0.2,0.13 0.21,0.14 0.14,0.14 0.32,0.19 0.09,0.03 0.2,0.17 0.27,0.24 0.08,0.08 0.23,0.26 0.31,0.36 0.1,0.12 0.2,0.27 0.28,0.4 0.03,0.05 0.02,0.07 0,0.14 -0.03,0.2 0.02,0.1 -0.23,0.28 -0.14,0.1 -0.36,0.26 -0.51,0.33 -0.1,0.04 -0.1,0.1 -0.28,0.22 -0.09,0.06 -0.16,0.02 -0.26,0.07 -0.03,-0.02 -0.04,-0.06 -0.08,-0.08 -0.09,-0.05 -0.19,0.05 -0.2,0.06 -0.05,0.03 -0.34,0.1 -0.36,0.1 -0.09,0 -0.07,-0.07 -0.11,-0.11 -0.01,-0.01 -0.02,-0.01 -0.02,-0.02l-0.02 -0.02c0.08,0.01 0.14,-0.02 0.18,-0.08 0.04,-0.07 0,-0.17 -0.05,-0.2 -0.03,-0.02 -0.07,0 -0.1,-0.02 -0.04,-0.03 0.01,-0.03 -0.11,-0.03 -0.08,0 -0.18,0.02 -0.22,-0.04 -0.04,-0.06 0,-0.15 -0.04,-0.22 -0.02,-0.04 -0.01,-0.06 0.01,-0.09 0.07,-0.09 0.14,-0.11 0.25,-0.15 0.06,-0.02 0.14,-0.06 0.19,-0.07l0 -0.09 -0.42 -0.02c0.04,-0.03 0.03,-0.02 0.02,-0.07l0.4 -0.38c0,-0.05 0,-0.06 -0.02,-0.09 -0.05,0 -0.21,0.05 -0.27,0.07 -0.09,0.03 -0.16,0.06 -0.27,0.06 0.06,-0.06 0.45,-0.26 0.62,-0.5l0.01 -0.03c0,0 0,0 0,-0.01 0,-0.03 -0.1,0.03 -0.12,0.03l-0.57 0.24c-0.05,0.02 -0.06,0.01 -0.11,-0.02 -0.32,-0.18 -0.4,-0.21 -0.68,-0.44 -0.07,-0.05 -0.13,-0.14 -0.18,-0.15 -0.21,-0.02 -0.46,0.09 -0.6,0.18 -0.07,0.05 -0.16,0.1 -0.24,0.15l-0.23 0.15 0.3 0.44c0.01,-0.07 0.01,-0.13 0.01,-0.2 0.01,-0.06 -0.01,-0.15 0,-0.2 0.06,0.02 0.12,0 0.18,-0.03 0.09,-0.04 0.12,0 0.17,-0.02 0.06,-0.01 0.1,-0.04 0.18,-0.04 0.05,0.01 0.1,0.05 0.14,0.08 0.07,0.05 0.07,0.03 0.1,0.12 0.01,0.06 0.03,0.11 0.05,0.16 0.03,0.1 0.01,0.11 0.01,0.19 0,0.05 0.05,0.08 0.04,0.18 -0.04,0.03 -0.21,0.11 -0.26,0.14 -0.08,0.03 -0.06,0.02 -0.11,0.08 -0.1,0.15 -0.48,0.31 -0.47,0.49 0.15,-0.09 0.32,-0.18 0.47,-0.28l0.46 -0.27 -0.02 0.08c0.01,0.01 0.02,0.02 0.03,0.04 -0.02,0.05 -0.07,0.11 -0.11,0.15 -0.08,0.11 -0.11,0.11 -0.14,0.13 0.07,0.01 0.11,0.04 0.16,-0.01 0.03,-0.02 0.08,-0.05 0.13,-0.06 -0.01,0.05 -0.06,0.14 -0.08,0.19 -0.02,0.05 -0.06,0.13 -0.08,0.17 -0.11,0.16 -0.2,0.09 -0.3,0.22 0.07,0.01 0.17,0.01 0.24,-0.02 0.04,-0.01 0.04,-0.03 0.08,-0.04 0.07,-0.01 0.05,-0.02 0.09,-0.04 0.05,0.12 -0.09,0.3 -0.11,0.43 0.03,-0.01 0.04,-0.03 0.07,-0.06 0.02,-0.02 0.03,-0.04 0.05,-0.07 0.01,-0.01 0.02,-0.02 0.03,-0.03l0.29 -0.33c-0.02,0.07 -0.04,0.22 0.01,0.28 0.08,-0.1 0.16,-0.14 0.18,-0.24 0,-0.06 0.02,-0.07 0.03,-0.11 0,0 0,0 0.01,0.01 0.01,0.04 -0.04,0.29 -0.05,0.33 -0.01,0.11 -0.04,0.21 -0.09,0.3 -0.09,0.14 -0.31,0.23 -0.55,0.22 -0.1,-0.01 -0.09,0 -0.17,0.02 -0.09,0.02 -0.1,-0.01 -0.15,0.04 -0.07,0.06 -0.23,0.3 -0.18,0.39 0.12,0.22 0.26,0.23 0.31,0.27 -0.19,0.13 -0.42,0.23 -0.67,0.24 -0.12,0 -0.16,0 -0.25,-0.05l-0.03 0.02c0.04,0.08 0.2,0.14 0.3,0.18 0.11,0.03 0.25,0.1 0.28,0.19 -0.05,0.01 -0.11,0.04 -0.16,0.06 -0.07,0.02 -0.11,0.04 -0.15,0.07 -0.06,0.05 -0.19,0.16 -0.27,0.18 -0.02,-0.05 -0.15,-0.24 -0.17,-0.27 -0.06,0.06 -0.07,0.16 -0.08,0.28 -0.01,0.2 -0.04,0.33 -0.23,0.24 -0.07,-0.03 -0.05,-0.05 -0.12,-0.02 -0.2,0.06 -0.34,0.1 -0.45,0.26 -0.09,0.11 -0.22,0.29 -0.29,0.42 -0.06,0.11 -0.07,0.15 -0.11,0.24 -0.04,-0.08 -0.04,-0.1 -0.09,-0.17 -0.08,-0.1 -0.1,-0.07 -0.09,-0.14 0.01,-0.14 -0.02,-0.36 0.1,-0.41 -0.01,-0.18 0.12,-0.26 0.12,-0.41 -0.12,-0.05 -0.18,-0.07 -0.33,-0.07 -0.19,0 -0.24,0.04 -0.34,0.04 -0.33,-0.84 -0.25,-2 0.17,-2.81l0.18 -0.33c0.04,-0.16 0.11,-0.18 0.21,-0.3 0.09,-0.12 0.05,-0.14 0.08,-0.17l0.3 -0.3c0.22,-0.23 0.3,-0.21 0.39,-0.28 0.15,-0.1 0.36,-0.23 0.52,-0.33 0.36,-0.21 0.58,-0.27 1,-0.35 0.32,-0.06 0.6,-0.09 0.93,-0.08 0.13,0.01 0.18,0.01 0.29,0.05 0.17,0.07 0.37,0.08 0.56,0.12 0.1,0.02 0.17,0.05 0.25,0.09 0.05,0.02 0.2,0.09 0.22,0.11zm6.72 -0.93l-0.03 0.17c-0.02,0.06 0,0.1 -0.03,0.17 -0.02,0.04 -0.04,0.1 -0.05,0.16 -0.04,0.15 -0.08,0.55 -0.15,0.66 -0.04,0.06 -0.16,0.17 -0.17,0.24 0.03,0.07 0.09,0.11 0.13,0.17 -0.02,0.05 -0.14,0.32 -0.17,0.38l-0.18 0.36c0.03,0.02 0.08,0.04 0.12,0.05 0.01,0 0.02,0 0.03,0l0.02 0.01c-0.02,0.16 -0.07,0.32 -0.11,0.46 -0.02,0.07 -0.04,0.15 -0.05,0.23 -0.01,0.07 -0.02,0.19 -0.03,0.25 -0.07,0.22 -0.13,0.43 -0.18,0.66 -0.01,0.09 -0.02,0.17 -0.03,0.25 -0.03,-0.04 -0.04,-0.21 -0.05,-0.28 -0.05,-0.35 -0.05,-0.55 -0.07,-0.88l-0.17 -2.07c0,-0.09 0.01,-0.1 -0.04,-0.13 -0.25,-0.17 -0.64,-0.16 -0.94,-0.11 -0.04,0.01 -0.09,0.02 -0.13,0.03 -0.03,0.01 -0.1,0.02 -0.12,0.04 -0.02,0.02 -0.23,0.81 -0.27,0.97 -0.02,0.06 -0.02,0.09 -0.02,0.15 -0.03,0.21 -0.14,0.36 -0.23,0.48 -0.09,0.11 -0.17,0.18 -0.26,0.27 -0.04,0.04 -0.05,0.06 -0.13,0.05 -0.06,0 -0.1,-0.01 -0.09,-0.08 0,-0.06 0,-0.1 -0.01,-0.16 -0.06,-0.77 -0.11,-1.55 -0.15,-2.32 -0.09,0 -0.17,0.04 -0.25,0.06 -0.16,0.06 -0.31,0.11 -0.48,0.14 -0.17,0.03 -0.52,0.16 -0.7,0.22l-0.47 0.14c0.01,0.11 0.16,0.65 0.13,0.69 -0.02,-0.01 -0.01,-0.01 -0.03,-0.03l-0.1 -0.08c-0.03,-0.04 -0.08,-0.08 -0.12,-0.12 -0.11,-0.12 -0.42,-0.32 -0.55,-0.4 -0.25,-0.15 -0.53,-0.29 -0.78,-0.42 -0.11,-0.06 -0.84,-0.2 -0.98,-0.2 -0.31,-0.06 -0.87,-0.02 -1.2,0.04 -0.13,0.02 -0.27,0.07 -0.35,0.08l-0.39 0.15c-0.12,0.05 -0.24,0.11 -0.36,0.16 -0.19,0.09 -0.19,0.08 -0.35,0.19 -0.1,0.08 -0.2,0.15 -0.3,0.23 -0.11,0.09 -0.18,0.16 -0.28,0.25 -0.05,0.04 -0.09,0.08 -0.14,0.13l-0.25 0.28c-0.1,0.12 -0.25,0.33 -0.33,0.46 -0.1,0.17 -0.3,0.53 -0.34,0.72 -0.03,0.14 -0.08,0.29 -0.14,0.4 -0.06,0.11 -0.07,0.3 -0.09,0.44 -0.05,0.48 -0.06,0.99 0.05,1.47 0.06,0.21 0.11,0.28 0.14,0.39 -0.07,0.03 -0.16,0.05 -0.24,0.08 -0.21,0.06 -0.31,0.13 -0.41,-0.07 -0.05,-0.08 -0.05,-0.15 -0.07,-0.24 -0.03,-0.18 -0.06,-0.36 -0.08,-0.54 -0.02,-0.23 0.04,-0.34 0.19,-0.43 0,-0.18 -0.01,-0.34 -0.08,-0.48 -0.06,-0.12 -0.06,-0.07 -0.05,-0.22 0.04,-0.42 0.1,-0.84 0.16,-1.25l0.23 -1.46c0.02,-0.16 0.05,-0.33 0.07,-0.48 -0.18,-0.01 -0.38,-0.04 -0.57,-0.05 -0.19,-0.02 -0.37,-0.03 -0.56,-0.05 -0.6,-0.05 -0.49,-0.08 -1.14,-0.01 -0.01,0.06 0.01,0.17 0.02,0.24 0,0.09 0.01,0.17 0.01,0.26 0.01,0.15 0.03,0.32 0.06,0.47 0.03,0.16 0.04,0.08 -0.02,0.19 -0.07,0.14 -0.2,0.44 -0.21,0.58 0.08,0.05 0.13,0.06 0.06,0.2 -0.04,0.1 -0.08,0.14 -0.06,0.26l0.25 0.09c0.01,0.23 0,0.46 0,0.69 0,0.23 0.01,0.09 -0.06,0.28 -0.01,0.04 -0.03,0.11 0,0.14 0.01,0.01 0.1,0.04 0.12,0.05 0.08,0.01 0.08,-0.02 0.12,0.06 0.02,0.04 0.03,0.09 0.04,0.13 0.1,0.47 0.11,1.82 0.11,2.28 0,0.08 -0.01,1.33 0,1.37l0.77 0.03 0 0.23 0.17 0 0 -0.07c0.05,-0.01 0.12,-0.03 0.16,-0.01 0.12,0.04 0.05,0.19 0.03,0.25 -0.02,0.05 -0.02,0.09 -0.03,0.14 -0.03,0.11 -0.04,0.27 0.05,0.36 0.02,0.02 0.02,0.01 0.05,0.03 0.04,0.02 0.06,0.05 0.12,0.03 0.02,0.03 0.01,0.02 0.03,0.05 0.02,0.02 0.02,0.02 0.04,0.04 0,0.06 0,0.05 0.03,0.08 0.06,0.06 0.17,0.07 0.25,0.06l0.08 -0.13c0.04,-0.04 0.04,-0.42 0.04,-0.51 0,-0.18 0.02,-0.31 0.13,-0.44l0.19 0.04c0.06,0.09 0.09,0.25 0.09,0.37 0.11,0 0.13,0.04 0.17,0.12 0.04,0.05 0.1,0.14 0.17,0.06 0.11,-0.1 0.09,-0.06 0.09,-0.2 0,-0.28 0.01,-0.52 0.06,-0.8 0.02,-0.13 0.05,-0.27 0.11,-0.39 0.03,-0.07 0.05,-0.04 0.08,0 0.07,0.1 0.23,0.23 0.33,0.29 0.09,0.07 0.14,0.14 0.22,0.22 0.02,0.02 0.03,0.03 0.05,0.04 0.22,0.2 0.69,0.45 1.01,0.57 0.57,0.21 1.18,0.31 1.81,0.28 0.22,-0.02 0.41,-0.05 0.62,-0.09 0.49,-0.07 1.07,-0.37 1.48,-0.63 0.25,-0.15 0.52,-0.39 0.71,-0.61 0.28,-0.33 0.39,-0.48 0.6,-0.88 0.07,-0.14 0.2,-0.48 0.21,-0.5 0.02,0.25 0.04,0.44 0.04,0.68 0,0.12 -0.02,0.1 -0.07,0.17 -0.03,0.04 -0.02,0.05 -0.02,0.09 0,0.03 -0.01,0.07 -0.02,0.09 -0.01,0.06 -0.04,0.16 -0.01,0.22 0.01,0.02 0.08,0.1 0.1,0.13l0.11 0.12c0.01,0.26 -0.15,0.56 -0.07,0.82 0.05,0.18 0.11,0.13 0.11,0.24 0,0.08 0.01,0.28 0,0.33 -0.02,0.05 -0.04,0.15 -0.05,0.18 -0.02,0.2 -0.02,0.27 0.07,0.43 0.06,-0.01 0.14,-0.02 0.19,-0.05 0.04,-0.02 0.02,-0.07 0.03,-0.16 0,-0.06 0,-0.11 0.01,-0.17 0.01,-0.11 0.04,-0.2 0.09,-0.27l0.24 0c0.14,-0.21 -0.07,-0.43 0.28,-0.41 0.03,-0.06 0.11,-0.1 0.08,-0.17l-0.03 -0.04c-0.01,-0.01 0,-0.01 -0.01,-0.02 0.04,-0.04 0.19,-0.14 0.25,-0.17 -0.01,-0.13 -0.01,-0.2 0.03,-0.33l0.08 -0.28c0.05,0.03 0.04,0.07 0.12,0.05 0.03,0 0.1,-0.02 0.12,-0.04 0.05,-0.07 0,-0.35 -0.03,-0.46 -0.01,-0.03 -0.02,-0.03 0.05,-0.1 0.05,-0.06 0.11,-0.13 0.17,-0.17 -0.03,-0.21 -0.07,-0.55 -0.02,-0.76 0.05,-0.18 0.13,-0.45 0.2,-0.62 0.05,-0.13 0.09,-0.21 0.15,-0.33l0.03 -0.04c0.03,0.29 0.15,0.75 0.16,0.88 0.04,0.72 -0.08,0.56 -0.15,0.87 -0.07,0.37 0.24,0.4 0.25,0.42l0.01 0.03c0.08,0.33 0.19,0.95 0.22,1.25 0.1,-0.01 0.05,-0.06 0.16,-0.05 0.14,0.02 0.26,0.17 0.28,0.33 0.02,0.16 -0.06,0.1 -0.06,0.34 0.01,0.21 0.07,0.28 0.07,0.32 0.01,0 0.01,0.01 0.01,0.01 0,0 0,0 0,0l0.05 0.06c0.02,0.03 0.02,0.04 0.08,0.04 0.02,-0.01 0.13,-0.06 0.16,-0.08 0,-0.13 -0.01,-0.27 -0.01,-0.4 0,-0.06 0.01,-0.12 0.03,-0.18 0.03,-0.06 0.06,-0.08 0.08,-0.12 0.05,0.01 0.1,0.07 0.13,0.08 0.05,0.02 0.13,-0.01 0.15,-0.04 0.07,-0.06 -0.01,-0.23 -0.02,-0.32 -0.03,-0.18 0.07,-0.16 0.1,-0.21 0.01,-0.01 0.03,-0.04 0.03,-0.06 0.03,-0.1 0,-0.26 0.02,-0.38 0.07,-0.01 0.21,0.04 0.28,0 0.13,-0.09 0.08,-0.32 0.1,-0.51 0.01,-0.06 0.01,-0.06 0.06,-0.09 0.04,-0.02 0.07,-0.04 0.1,-0.05 -0.01,-0.08 -0.03,-0.13 -0.04,-0.23 -0.02,-0.26 0.02,-0.47 0.07,-0.71 0.03,-0.16 0.04,-0.29 0.1,-0.44 0.09,-0.25 0.27,-0.51 0.24,-0.81 0,-0.07 0.04,-0.15 0.09,-0.16 0.06,-0.02 0.06,0.04 0.17,-0.08 0.03,-0.04 0.04,-0.06 0.03,-0.1 0,-0.18 -0.03,-0.46 0.02,-0.63 0.03,-0.1 0.06,-0.12 0.09,-0.17 0.06,0.03 0.19,0 0.25,-0.02 0.13,-0.03 0.13,-0.08 0.13,-0.16 -0.02,-0.17 -0.06,-0.33 -0.07,-0.5 -0.02,-0.23 0.01,-0.31 0.04,-0.51 0.09,-0.58 0.23,-1.31 0.48,-1.83 0.03,-0.06 0.06,-0.12 0.09,-0.19l0.11 -0.18c-0.16,-0.03 -0.22,-0.06 -0.42,-0.09 -0.15,-0.03 -0.3,-0.05 -0.46,-0.06 -0.11,0 -0.93,-0.05 -0.98,-0.02l-0.01 0.02c0,0 0,0 0,0 -0.01,0.01 -0.01,0.02 -0.01,0.03 -0.01,0.02 -0.01,0.03 -0.02,0.05z"/>
 </g>
</svg>
